<?xml version="1.0" encoding="utf-8"?>
<!-- Generator: Adobe Illustrator 21.0.0, SVG Export Plug-In . SVG Version: 6.00 Build 0)  -->
<svg version="1.1" id="Capa_1" width="32" height="32" xmlns="http://www.w3.org/2000/svg" xmlns:xlink="http://www.w3.org/1999/xlink" x="0px" y="0px"
	 viewBox="0 0 100 100" style="enable-background:new 0 0 100 100;" xml:space="preserve">
<path d="M99.1,95L73.4,69.4C80,61.7,83.6,52,83.6,42c0-23-18.7-41.8-41.8-41.8c-23,0-41.7,18.7-41.7,41.7c0,23,18.7,41.8,41.8,41.8
	c10.1,0,19.7-3.6,27.4-10.3L95,99c0.6,0.6,1.3,0.9,2,0.9c0.7,0,1.4-0.3,1.9-0.8c0.6-0.5,0.9-1.2,1-2C99.9,96.3,99.6,95.5,99.1,95z
	 M77.9,42c0,19.8-16.2,36-36.1,36c-19.8,0-36-16.2-36-36.1c0-19.8,16.2-36,36.1-36C61.8,5.9,77.9,22.1,77.9,42z"/>
</svg>
