<?xml version="1.0" encoding="utf-8"?>
<!-- Generator: Adobe Illustrator 21.0.0, SVG Export Plug-In . SVG Version: 6.00 Build 0)  -->
<svg version="1.1" id="Capa_1" width="32" height="32" xmlns="http://www.w3.org/2000/svg" xmlns:xlink="http://www.w3.org/1999/xlink" x="0px" y="0px"
	 viewBox="0 0 100 100" style="enable-background:new 0 0 100 100;" xml:space="preserve">
<g>
	<path d="M98.9,94.9L73.3,69.2c6.6-7.6,10.3-17.3,10.3-27.3c0-23-18.7-41.7-41.7-41.7C18.9,0.2,0.3,18.9,0.3,41.9S19,83.6,42,83.6
		c10,0,19.7-3.6,27.3-10.3l25.5,25.5c0.6,0.6,1.3,0.9,2,0.9c0.7,0,1.4-0.3,1.9-0.8c0.6-0.5,0.9-1.2,1-2
		C99.8,96.2,99.5,95.4,98.9,94.9z M77.8,42c0,19.8-16.1,35.9-36,35.9C22.1,77.8,6,61.7,6,41.9C6,22.1,22.1,6,42,6
		C61.8,6,77.8,22.1,77.8,42z"/>
	<path d="M59.7,39H44.8V24.1c0-1.6-1.3-2.9-2.9-2.9c-1.6,0-2.9,1.3-2.9,2.9V39H24.2c-1.6,0-2.9,1.3-2.9,2.9c0,1.6,1.3,2.9,2.9,2.9
		h14.9v14.9c0,1.6,1.3,2.9,2.9,2.9c1.6,0,2.9-1.3,2.9-2.9V44.7h14.9c1.6,0,2.9-1.3,2.9-2.9C62.6,40.3,61.3,39,59.7,39z"/>
</g>
</svg>
