<?xml version="1.0" encoding="utf-8"?>
<!-- Generator: Adobe Illustrator 21.0.0, SVG Export Plug-In . SVG Version: 6.00 Build 0)  -->
<svg version="1.1" id="Capa_1" width="32" height="32" xmlns="http://www.w3.org/2000/svg" xmlns:xlink="http://www.w3.org/1999/xlink" x="0px" y="0px"
	 viewBox="0 0 100 100" style="enable-background:new 0 0 100 100;" xml:space="preserve">
<g>
	<path d="M99,94.9L73.4,69.2c6.6-7.7,10.3-17.3,10.3-27.4C83.7,18.8,65,0.1,42,0.1c-23,0-41.8,18.7-41.8,41.7
		c0,23,18.7,41.8,41.8,41.8c10.1,0,19.8-3.6,27.4-10.3l25.6,25.6c0.6,0.6,1.3,0.9,2,0.9c0.7,0,1.4-0.3,2-0.9
		C100.1,97.9,100.1,95.9,99,94.9z M42,5.8c19.8,0,36,16.1,36,36c0,19.9-16.1,36.1-36,36.1c-19.9,0-36.1-16.2-36.1-36.1
		C5.9,21.9,22.1,5.8,42,5.8z"/>
	<path d="M24.1,44.6h35.6c1.6,0,2.9-1.3,2.9-2.9c0-1.5-1.3-2.9-2.9-2.9H24.1c-1.6,0-2.9,1.3-2.9,2.9C21.3,43.4,22.5,44.6,24.1,44.6z
		"/>
</g>
</svg>
