<?xml version="1.0" encoding="utf-8"?>
<!-- Generator: Adobe Illustrator 21.0.0, SVG Export Plug-In . SVG Version: 6.00 Build 0)  -->
<svg version="1.1" id="Capa_1" width="32" height="32" xmlns="http://www.w3.org/2000/svg" xmlns:xlink="http://www.w3.org/1999/xlink" x="0px" y="0px"
	 viewBox="0 0 100 100" style="enable-background:new 0 0 100 100;" xml:space="preserve">
<path d="M99.1,25.3c-1.1-1.1-2.8-1.1-4.1,0L50,68.7L5,25.3c-1.1-1.1-2.8-1.1-4.1,0C0.3,25.8,0,26.6,0,27.3c0,0.8,0.3,1.5,0.8,2.1
	l47,45.4c0.4,0.4,1,0.8,2,0.8c0.6,0,1.2-0.2,1.8-0.6l0.1-0.1l47.1-45.5c0.6-0.5,1-1.3,1-2.1C99.9,26.6,99.6,25.8,99.1,25.3z"/>
</svg>
