<?xml version="1.0" encoding="utf-8"?>
<!-- Generator: Adobe Illustrator 21.0.0, SVG Export Plug-In . SVG Version: 6.00 Build 0)  -->
<svg version="1.1" id="Capa_1" width="32" height="32" xmlns="http://www.w3.org/2000/svg" xmlns:xlink="http://www.w3.org/1999/xlink" x="0px" y="0px"
	 viewBox="0 0 100 100" style="enable-background:new 0 0 100 100;" xml:space="preserve">
<path d="M74.5,47.9L29.8,0.8c-1.1-1.1-2.8-1.1-4-0.1c-0.6,0.5-0.9,1.3-0.9,2.1c0,0.7,0.3,1.4,0.8,2l42.8,45l-42.8,45
	c-0.5,0.5-0.8,1.3-0.8,2.1s0.3,1.5,0.8,2.1c0.5,0.6,1.3,0.9,2,0.9c0.6,0,1.3-0.2,1.9-0.8l0.1-0.1l44.8-47.2
	C75.6,50.7,75.5,49,74.5,47.9z"/>
</svg>
