<?xml version="1.0" encoding="utf-8"?>
<!-- Generator: Adobe Illustrator 21.0.0, SVG Export Plug-In . SVG Version: 6.00 Build 0)  -->
<svg version="1.1" id="Capa_1" width="32" height="32" xmlns="http://www.w3.org/2000/svg" xmlns:xlink="http://www.w3.org/1999/xlink" x="0px" y="0px"
	 viewBox="0 0 100 100" style="enable-background:new 0 0 100 100;" xml:space="preserve">
<path d="M98.7,70.6L52,25.3c-1.1-1.1-2.9-1-4,0L1.1,70.6c-0.5,0.5-0.8,1.2-0.9,2c0,0.8,0.3,1.5,0.9,2.1c0.6,0.6,1.3,0.9,2,0.9
	c0.7,0,1.5-0.3,2-0.9L50,31.4l44.8,43.2c0.9,0.9,2.4,1.1,3.9,0l0.1-0.1c0.5-0.5,0.8-1.3,0.8-2C99.7,71.8,99.3,71.1,98.7,70.6z"/>
</svg>
