<?xml version="1.0" encoding="utf-8"?>
<!-- Generator: Adobe Illustrator 21.0.0, SVG Export Plug-In . SVG Version: 6.00 Build 0)  -->
<svg version="1.1" id="Capa_1" width="32" height="32" xmlns="http://www.w3.org/2000/svg" xmlns:xlink="http://www.w3.org/1999/xlink" x="0px" y="0px"
	 viewBox="0 0 100 100" style="enable-background:new 0 0 100 100;" xml:space="preserve">
<path d="M96.6,47H9.9l27.6-29c0.5-0.5,0.8-1.3,0.8-2.1c0-0.8-0.4-1.5-0.9-2c-0.5-0.5-1.3-0.8-2-0.8c-0.8,0-1.5,0.3-2.1,0.9L1.2,47.9
	L1,48.1c-0.1,0.1-0.2,0.3-0.3,0.4l-0.1,0.2c-0.3,0.7-0.4,1.5-0.1,2.2c0.1,0.1,0.1,0.3,0.2,0.4c0.1,0.2,0.2,0.3,0.3,0.4l0.2,0.2
	c0,0,0,0,0,0l32.2,33.8c0.6,0.6,1.3,0.9,2.1,0.9c1.1,0,1.7-0.5,2-0.9c1-1.1,1.1-2.8,0.1-4L9.9,52.8h86.7c1.6,0,2.9-1.3,2.9-2.9
	S98.2,47,96.6,47z"/>
</svg>
