<?xml version="1.0" encoding="utf-8"?>
<!-- Generator: Adobe Illustrator 21.0.0, SVG Export Plug-In . SVG Version: 6.00 Build 0)  -->
<svg version="1.1" id="Capa_1" width="32" height="32" xmlns="http://www.w3.org/2000/svg" xmlns:xlink="http://www.w3.org/1999/xlink" x="0px" y="0px"
	 viewBox="0 0 100 100" style="enable-background:new 0 0 100 100;" xml:space="preserve">
<path d="M99.7,49.3c-0.2-0.5-0.5-0.9-0.7-1.1l-32.4-34c-0.5-0.6-1.2-0.9-2-1c-0.7,0-1.5,0.2-2,0.7c-1.2,1-1.3,2.8-0.2,4.1l27.7,29.1
	H3c-1.6,0-2.9,1.3-2.9,2.9c0,1.6,1.3,2.8,2.9,2.8h87.1L62.5,82c-0.5,0.6-0.8,1.3-0.7,2c0,0.8,0.4,1.5,0.9,2c0.5,0.6,1.3,0.9,2,0.9
	c0.6,0,1.3-0.2,2-0.8l32.4-34l0,0c0,0,0.7-1.1,0.7-1.4C99.9,50.2,99.9,49.8,99.7,49.3z"/>
</svg>
