<?xml version="1.0" encoding="utf-8"?>
<!-- Generator: Adobe Illustrator 21.0.0, SVG Export Plug-In . SVG Version: 6.00 Build 0)  -->
<svg version="1.1" id="Capa_1" width="32" height="32" xmlns="http://www.w3.org/2000/svg" xmlns:xlink="http://www.w3.org/1999/xlink" x="0px" y="0px"
	 viewBox="0 0 100 100" style="enable-background:new 0 0 100 100;" xml:space="preserve">
<path d="M99.8,38.1c-0.1-0.4-0.4-0.9-0.7-1.2C90.8,27.6,63,2.5,63,2.5c-0.8-0.7-1.9-0.8-2.5-0.4c-1,0.5-1.5,1.3-1.5,2.2v17.5
	C25.9,24.6,0,52.7,0,86.1V96c0,1.2,0.7,2.1,1.9,2.4h0.6c0.8,0,1.7-0.5,2.2-1.4l1.8-3.9c9.7-20.9,29.8-35,52.5-37v17
	c0,0.9,0.6,1.8,1.4,2.2c0.9,0.4,1.9,0.2,2.6-0.4l36-34.4c0.5-0.5,0.8-1.3,0.8-2 M63,51.7c-0.6-0.6-1.4-0.7-1.8-0.6
	C37.8,52.2,16.4,65.3,4.8,85.6C5.1,53.9,29.9,28,61.5,26.4c1.3,0,2.3-1,2.3-2.4V9.9l30.1,28.8L63.8,67.4V53.5
	C63.8,52.9,63.5,52.2,63,51.7z"/>
</svg>
