<?xml version="1.0" encoding="utf-8"?>
<!-- Generator: Adobe Illustrator 21.0.0, SVG Export Plug-In . SVG Version: 6.00 Build 0)  -->
<svg version="1.1" id="Capa_1" width="32" height="32" xmlns="http://www.w3.org/2000/svg" xmlns:xlink="http://www.w3.org/1999/xlink" x="0px" y="0px"
	 viewBox="0 0 100 100" style="enable-background:new 0 0 100 100;" xml:space="preserve">
<g>
	<path d="M99.7,27.7L99.7,27.7c-0.1-0.1-0.2-0.3-0.3-0.5l-0.1-0.1c0-0.1-0.1-0.2-0.3-0.3L81.2,9c-1-1-2.8-1-3.8,0c-1,1-1,2.8,0,3.8
		l13.4,13.4H20.7c-1.5,0-2.7,1.2-2.7,2.7c0,1.6,1.1,2.7,2.7,2.7h70.1L77.5,44.8c-0.5,0.5-0.8,1.2-0.8,1.9c0,0.7,0.3,1.4,0.8,1.9
		c0.5,0.5,1.2,0.8,1.8,0.8c0.6,0,1.3-0.3,1.8-0.8L99,30.7c0.2-0.2,0.4-0.4,0.7-0.9C100,29.2,100,28.4,99.7,27.7z"/>
	<path d="M79.3,68.6H9.2l13.4-13.4c1-1,1-2.8,0-3.8c-1-1-2.8-1-3.8,0l-18,17.9c-0.2,0.2-0.4,0.4-0.6,0.8c-0.3,0.7-0.3,1.5,0,2.2
		c0.1,0.1,0.3,0.5,0.7,0.9l17.8,17.8c0.5,0.5,1.2,0.8,1.8,0.8c0.6,0,1.4-0.3,1.8-0.8c1-1,1-2.8,0-3.8L9.1,73.9h70.1
		c1.5,0,2.7-1.2,2.7-2.5c0.1-0.7-0.1-1.3-0.6-2C80.8,68.9,80.2,68.6,79.3,68.6z"/>
</g>
</svg>
