<?xml version="1.0" encoding="utf-8"?>
<!-- Generator: Adobe Illustrator 21.0.0, SVG Export Plug-In . SVG Version: 6.00 Build 0)  -->
<svg version="1.1" id="Capa_1" width="32" height="32" xmlns="http://www.w3.org/2000/svg" xmlns:xlink="http://www.w3.org/1999/xlink" x="0px" y="0px"
	 viewBox="0 0 100 100" style="enable-background:new 0 0 100 100;" xml:space="preserve">
<g>
	<path d="M99.9,2.6c-0.1-0.3-0.1-0.4-0.2-0.6c-0.1-0.1,0,0-0.1-0.2l-0.1-0.2c-0.3-0.6-0.8-1.1-1.4-1.4c-0.3-0.1-0.7-0.1-1-0.1H68
		c-1.5,0-2.6,1.2-2.6,2.6c0,1.5,1.1,2.6,2.6,2.6h22.9L59.6,36.7c-1,1-1,2.6,0,3.7c0.5,0.5,1.1,0.8,1.9,0.8c0.7,0,1.4-0.4,1.9-0.8
		L94.7,9.1V32c0,1.5,1.2,2.6,2.6,2.6c1.5,0,2.6-1.2,2.6-2.6l0-29.2L99.9,2.6z"/>
	<path d="M38.6,58.8c-0.7,0-1.3,0.3-1.7,0.9L5.5,91V68c0-1.5-1.2-2.6-2.6-2.6S0.2,66.5,0.2,68v29.3c0,0.2,0,0.7,0.2,1
		c0.3,0.6,0.8,1.1,1.4,1.4c0.4,0.2,0.8,0.2,1,0.2h29.3c1.5,0,2.6-1.2,2.6-2.6c0-1.5-1.2-2.6-2.6-2.6H9.2l31.3-31.3c1-1,1-2.6,0-3.7
		C40,59,39.2,58.7,38.6,58.8z"/>
</g>
</svg>
