<?xml version="1.0" encoding="utf-8"?>
<!-- Generator: Adobe Illustrator 21.0.0, SVG Export Plug-In . SVG Version: 6.00 Build 0)  -->
<svg version="1.1" id="Capa_1" width="32" height="32" xmlns="http://www.w3.org/2000/svg" xmlns:xlink="http://www.w3.org/1999/xlink" x="0px" y="0px"
	 viewBox="0 0 100 100" style="enable-background:new 0 0 100 100;" xml:space="preserve">
<g>
	<path d="M68.8,63.4c5.4,0,9.7-4.4,9.7-9.7V43.2c0-2.6-1-5-2.8-6.9c-1.8-1.8-4.3-2.8-6.9-2.8c-5.4,0-9.7,4.4-9.7,9.7v7.1
		c-0.4-1.8-1.3-3.5-2.7-4.8c-1.9-1.9-4.4-2.9-7.1-2.9c-1.4,0-2.8,0.3-4.1,0.9c0.1-2.2,1.9-4,4.1-4c0.9,0,1.8,0.3,2.6,0.9
		c0.6,0.5,1.4,0.7,2.2,0.6s1.5-0.5,2-1.1c0.5-0.6,0.7-1.4,0.6-2.2s-0.5-1.5-1.1-2c-1.8-1.4-3.9-2.1-6.2-2.1
		c-5.5,0-10.1,4.5-10.1,10.1v7.6c-0.4-2.5-1.8-4.8-3.9-6.4c0.7-1.1,1-2.4,1-3.8c0-4.1-3.4-7.5-7.5-7.5c-1.8,0-3.6,0.7-5,1.9
		c-0.6,0.5-0.9,1.2-1,2c0,0.8,0.2,1.5,0.7,2.1c0.5,0.6,1.2,0.9,2,1s1.5-0.2,2.1-0.7c0.3-0.3,0.7-0.4,1-0.4c0.9,0,1.6,0.7,1.6,1.6
		c0,0.9-0.7,1.6-1.6,1.6c-1.6,0-3,1.3-3,3c0,1.6,1.3,3,3,3c2.5,0,4.6,2,4.6,4.6c0,2.5-2,4.6-4.6,4.6c-1.5,0-2.8-0.7-3.7-1.8
		c-1-1.3-2.8-1.6-4.1-0.6c-1.3,1-1.6,2.8-0.6,4.1c2,2.7,5,4.2,8.4,4.2c5.3,0,9.6-3.9,10.4-9c0.5,5,4.8,9,10,9c4.9,0,9.1-3.6,9.9-8.3
		C59.9,59.8,64,63.4,68.8,63.4z M72.6,53.7c0,2.1-1.7,3.8-3.8,3.8c-2.1,0-3.8-1.7-3.8-3.8V43.2c0-2.1,1.7-3.8,3.8-3.8
		c2.1,0,3.8,1.7,3.8,3.8V53.7z M49.3,57.5c-2.3,0-4.1-1.9-4.1-4.1v-0.8c0-2.3,1.9-4.1,4.1-4.1s4.1,1.9,4.1,4.1v0.8
		C53.5,55.7,51.6,57.5,49.3,57.5z"/>
	<path d="M19.1,80.9C10.9,72.6,6.3,61.6,6.3,50s4.5-22.6,12.8-30.9S38.4,6.3,50,6.3c8.2,0,16.1,2.2,23,6.5c-0.6,0.4-1.1,1-1.2,1.7
		c-0.2,0.8-0.1,1.6,0.3,2.2c0.4,0.7,1,1.2,1.8,1.4l9.8,2.6c0.3,0.1,0.5,0.1,0.8,0.1c0.9,0,1.7-0.4,2.3-1.1c0.7-0.9,0.9-2.1,0.3-3.2
		l-4.6-9.1c-0.4-0.7-1-1.2-1.7-1.5c-0.7-0.3-1.6-0.2-2.3,0.2c-0.7,0.4-1.2,1-1.5,1.7C77,8,77,8.1,76.9,8.3C69,3.1,59.7,0.4,50,0.4
		C36.8,0.4,24.3,5.5,15,14.9S0.4,36.7,0.4,50S5.6,75.7,15,85c0.6,0.6,1.3,0.9,2.1,0.9c0.8,0,1.5-0.3,2.1-0.9
		c0.6-0.6,0.9-1.3,0.9-2.1C20,82.1,19.7,81.4,19.1,80.9z"/>
	<path d="M96,58.3c-0.8-0.2-1.6-0.1-2.2,0.3c-0.7,0.4-1.1,1.1-1.3,1.8c-0.2,0.9-0.5,1.8-0.8,2.7c-0.2,0.8-0.2,1.6,0.2,2.3
		s1,1.2,1.7,1.5c0.3,0.1,0.6,0.1,0.9,0.1c1.3,0,2.4-0.8,2.8-2.1c0.3-1,0.6-2,0.9-3.1c0.2-0.8,0.1-1.6-0.3-2.2
		C97.4,59,96.8,58.5,96,58.3z"/>
	<path d="M86.2,25.4L86.2,25.4c0.5,0.8,1,1.6,1.5,2.4c0.5,0.9,1.5,1.5,2.6,1.5c0.5,0,1.1-0.1,1.5-0.4c1.4-0.8,1.9-2.6,1.1-4
		c-0.5-0.9-1.1-1.8-1.7-2.7c-0.4-0.6-1.1-1.1-1.9-1.2c-0.8-0.2-1.6,0-2.2,0.5C85.6,22.3,85.3,24.1,86.2,25.4z"/>
	<path d="M27.1,87.2L27.1,87.2L26.9,87l0,0L26.8,87c-0.8-0.5-1.5-1-2.3-1.5c-0.6-0.5-1.4-0.6-2.2-0.5c-0.8,0.1-1.5,0.5-1.9,1.2
		c-1,1.3-0.6,3.2,0.7,4.1c0.9,0.6,1.8,1.2,2.6,1.8c0.5,0.3,1,0.4,1.6,0.4c1,0,2-0.5,2.5-1.4C28.6,89.8,28.3,88.1,27.1,87.2z"/>
	<path d="M95.4,38.9L95.4,38.9c-0.8,0.1-1.5,0.6-1.9,1.2c-0.4,0.6-0.6,1.4-0.5,2.2c0.2,0.9,0.3,1.9,0.4,2.8c0.2,1.5,1.4,2.6,2.9,2.6
		c0.1,0,0.2,0,0.3,0c0.8-0.1,1.5-0.5,2-1.1c0.5-0.6,0.7-1.4,0.6-2.2c-0.1-1.1-0.3-2.1-0.4-3.2c-0.1-0.8-0.6-1.4-1.2-1.9
		C97,38.9,96.2,38.7,95.4,38.9z"/>
	<path d="M35.1,91L35.1,91c-0.9-0.3-1.8-0.7-2.6-1.1c-1.5-0.7-3.2,0-3.9,1.5c-0.3,0.7-0.3,1.5,0,2.3c0.3,0.7,0.8,1.3,1.6,1.6
		c1,0.4,2,0.8,3,1.2c0.3,0.1,0.7,0.2,1,0.2c1.2,0,2.4-0.8,2.8-1.9c0.3-0.7,0.2-1.5-0.1-2.3C36.4,91.8,35.8,91.3,35.1,91z"/>
	<path d="M90.5,31.2L90.5,31.2c-0.3,0.7-0.3,1.5,0,2.3c0.4,0.9,0.7,1.8,1,2.6c0.4,1.2,1.5,2,2.8,2c0.3,0,0.6-0.1,0.9-0.2
		c1.5-0.5,2.4-2.2,1.9-3.7c-0.3-1-0.7-2-1.1-3c-0.3-0.7-0.9-1.3-1.6-1.6c-0.7-0.3-1.5-0.3-2.3,0C91.4,30,90.8,30.5,90.5,31.2z"/>
	<path d="M93.3,67.7L93.3,67.7c-1.5-0.7-3.3-0.1-4,1.3c-0.4,0.8-0.9,1.7-1.3,2.5c-0.4,0.7-0.5,1.5-0.3,2.2c0.2,0.8,0.7,1.4,1.4,1.8
		c0.4,0.3,1,0.4,1.5,0.4c1.1,0,2-0.6,2.6-1.5s1-1.9,1.5-2.8c0.4-0.7,0.4-1.5,0.1-2.3C94.5,68.7,94,68.1,93.3,67.7z"/>
	<path d="M80.3,82.7c-0.8-0.1-1.6,0.2-2.2,0.7c-0.7,0.6-1.5,1.2-2.2,1.8c-1.3,1-1.6,2.8-0.6,4.1c0.5,0.8,1.4,1.2,2.4,1.2
		c0.6,0,1.2-0.2,1.8-0.6c0.9-0.6,1.7-1.3,2.5-2c0.6-0.5,1-1.2,1-2s-0.2-1.6-0.7-2.2C81.8,83.2,81.1,82.8,80.3,82.7z"/>
	<path d="M88.6,76.3c-0.6-0.5-1.4-0.7-2.2-0.6c-0.8,0.1-1.5,0.5-2,1.1c-0.6,0.7-1.2,1.5-1.8,2.2c-0.5,0.6-0.8,1.3-0.7,2.1
		c0,0.8,0.4,1.5,1,2c0.5,0.5,1.2,0.7,2,0.7c0.8,0,1.7-0.4,2.2-1c0.7-0.8,1.4-1.6,2-2.5c0.5-0.6,0.7-1.4,0.6-2.2
		C89.6,77.5,89.3,76.8,88.6,76.3z"/>
	<path d="M72.8,88.3L72.8,88.3c-0.8-0.2-1.6-0.2-2.2,0.2c-0.8,0.4-1.7,0.9-2.5,1.2c-0.7,0.3-1.3,0.9-1.5,1.7
		c-0.3,0.7-0.3,1.5,0.1,2.3c0.5,1.1,1.5,1.7,2.7,1.7c0.4,0,0.8-0.1,1.2-0.3c1-0.4,1.9-0.9,2.9-1.4c1.4-0.8,2-2.6,1.2-4
		C74.2,89,73.6,88.5,72.8,88.3z"/>
	<path d="M64.4,92.2L64.4,92.2c-0.7-0.4-1.5-0.5-2.2-0.3c-0.9,0.3-1.8,0.5-2.7,0.7c-0.8,0.2-1.4,0.6-1.9,1.3
		c-0.4,0.7-0.6,1.5-0.4,2.2c0.3,1.3,1.5,2.3,2.9,2.3c0.2,0,0.4,0,0.6-0.1c1-0.2,2.1-0.5,3.1-0.8c0.8-0.2,1.4-0.7,1.8-1.4
		c0.4-0.7,0.5-1.5,0.3-2.2C65.5,93.2,65,92.6,64.4,92.2z"/>
	<path d="M44,93.2L44,93.2c-0.9-0.1-1.9-0.3-2.8-0.5c-0.8-0.2-1.6,0-2.2,0.4c-0.7,0.4-1.1,1.1-1.3,1.9c-0.2,0.8,0,1.6,0.4,2.2
		s1.1,1.1,1.9,1.3c1,0.2,2.1,0.4,3.2,0.5c0.1,0,0.3,0,0.4,0c1.5,0,2.7-1.1,2.9-2.6C46.7,95,45.6,93.5,44,93.2z"/>
	<path d="M55.2,94.3L55.2,94.3c-0.6-0.5-1.4-0.8-2.1-0.7c-0.9,0.1-1.9,0.1-2.8,0.1c-0.8,0-1.5,0.3-2.1,0.9c-0.5,0.6-0.9,1.3-0.9,2.1
		c0,1.6,1.3,2.9,3,2.9c1.1,0,2.1,0,3.2-0.1c1.6-0.1,2.8-1.5,2.7-3.2C56.2,95.5,55.8,94.8,55.2,94.3z"/>
	<path d="M98.8,49.5c-0.4-0.4-1-0.8-1.6-0.9v0l-1,0v0c-1.4,0.2-2.5,1.4-2.6,2.8c0,0.9-0.1,1.9-0.2,2.8c-0.1,0.8,0.2,1.6,0.7,2.2
		c0.5,0.6,1.2,1,2,1.1c0.1,0,0.2,0,0.3,0c1.5,0,2.8-1.1,2.9-2.7c0.1-1.1,0.2-2.1,0.2-3.2C99.6,50.8,99.3,50.1,98.8,49.5z"/>
</g>
</svg>
