<?xml version="1.0" encoding="utf-8"?>
<!-- Generator: Adobe Illustrator 21.0.0, SVG Export Plug-In . SVG Version: 6.00 Build 0)  -->
<svg version="1.1" id="Capa_1" width="32" height="32" xmlns="http://www.w3.org/2000/svg" xmlns:xlink="http://www.w3.org/1999/xlink" x="0px" y="0px"
	 viewBox="0 0 100 100" style="enable-background:new 0 0 100 100;" xml:space="preserve">
<style type="text/css">
	.st0{display:none;}
	.st1{display:inline;fill:#C63C3C;}
</style>
<g class="st0">
	<path class="st1" d="M49.9,100C22.4,100,0,77.6,0,50.1C0,22.6,22.4,0.3,49.9,0.3c27.5,0,49.9,22.4,49.9,49.9
		C99.7,77.6,77.4,100,49.9,100z M49.9,6.1c-24.3,0-44,19.7-44,44s19.7,44,44,44c24.3,0,44-19.7,44-44S74.1,6.1,49.9,6.1z"/>
</g>
<g>
	<path d="M93,25.5c0.9-3.9,2.8-11.7,3.3-15.6c0.2-1.6-0.2-2.7-1.7-3.1C93,6.3,92,7.1,91.3,8.9c-0.9,2.4-2.4,10.3-2.4,10.3
		C82.4,10.8,72.5,4.4,61.7,1.7l-0.4-0.1c-12.9-3.1-26-0.8-37.2,5.9C1.8,21.1-4.3,47.1,3,66.9c0.3,0.7,1.1,1.3,2,1.5
		c0.7,0.2,1.4-0.1,1.9-0.3L7,68c1.3-0.6,1.9-2.1,1.2-3.7c-6.4-18.3,0-40.6,19.4-52.1c9.8-5.8,21-7.6,32.6-4.8
		c8.7,2.1,17.9,7.4,23.6,15c0,0-8,0-10.7,0.1c-2,0-3,0.5-3.3,1.9c-0.4,1.5,0.4,3.1,1.9,3.2c4.9,0.3,17.7,0.4,17.7,0.4
		c0.5,0,0.6,0,1.2-0.1c0.6-0.1,1.3-0.6,1.7-1.1C92.6,26.3,93,25.5,93,25.5"/>
</g>
<g>
	<path d="M6.7,74.8C5.8,78.7,4,86.5,3.4,90.4c-0.2,1.6,0.2,2.7,1.7,3.1c1.6,0.4,2.6-0.4,3.3-2.2c0.9-2.4,2.4-10.3,2.4-10.3
		c6.5,8.4,16.5,14.8,27.3,17.5l0.4,0.1c12.9,3.1,26,0.8,37.2-5.9C98,79.2,104.1,53.1,96.8,33.3c-0.3-0.7-1.1-1.3-2-1.5
		c-0.7-0.2-1.4,0.1-1.9,0.3l-0.1,0.1c-1.3,0.6-1.9,2.1-1.2,3.7c6.4,18.3,0,40.6-19.4,52.1c-9.8,5.8-21,7.6-32.6,4.8
		c-8.7-2.1-17.9-7.4-23.6-15c0,0,8,0,10.7-0.1c2,0,3-0.5,3.3-1.9c0.4-1.5-0.4-3.1-1.9-3.2c-4.9-0.3-17.7-0.4-17.7-0.4
		c-0.5,0-0.6,0-1.2,0.1c-0.6,0.1-1.3,0.6-1.7,1.1C7.2,73.9,6.7,74.8,6.7,74.8"/>
</g>
</svg>
