<?xml version="1.0" encoding="utf-8"?>
<!-- Generator: Adobe Illustrator 21.0.0, SVG Export Plug-In . SVG Version: 6.00 Build 0)  -->
<svg version="1.1" id="Capa_1" width="32" height="32" xmlns="http://www.w3.org/2000/svg" xmlns:xlink="http://www.w3.org/1999/xlink" x="0px" y="0px"
	 viewBox="0 0 100 100" style="enable-background:new 0 0 100 100;" xml:space="preserve">
<g>
	<path d="M50,0C22.4,0,0,22.4,0,50s22.4,50,50,50s50-22.4,50-50S77.6,0,50,0z M50,94.7c-24.6,0-44.7-20-44.7-44.7S25.4,5.3,50,5.3
		s44.7,20,44.7,44.7S74.6,94.7,50,94.7z"/>
</g>
<path d="M60.5,36.3L49.9,46.9L39.4,36.3c-1.1-1.1-3-1.1-4.1,0c-1.1,1.1-1.1,3,0,4.1L45.8,51L35.4,61.4c-1.1,1.1-1.1,3,0,4.1
	c1.1,1.1,3,1.1,4.1,0L50,55l10.5,10.5c1.1,1.1,3,1.1,4.1,0c1.1-1.1,1.1-3,0-4.1L54,50.8l10.5-10.5c1.1-1.1,1.1-3,0-4.1
	C63.4,35.2,61.6,35.2,60.5,36.3z"/>
</svg>
