<?xml version="1.0" encoding="utf-8"?>
<!-- Generator: Adobe Illustrator 21.0.0, SVG Export Plug-In . SVG Version: 6.00 Build 0)  -->
<svg version="1.1" id="Capa_1" width="32" height="32" xmlns="http://www.w3.org/2000/svg" xmlns:xlink="http://www.w3.org/1999/xlink" x="0px" y="0px"
	 viewBox="0 0 100 100" style="enable-background:new 0 0 100 100;" xml:space="preserve">
<g>
	<path d="M50,0C22.4,0,0,22.4,0,50s22.4,50,50,50s50-22.4,50-50S77.6,0,50,0z M50,94.7c-24.6,0-44.7-20-44.7-44.7S25.4,5.3,50,5.3
		s44.7,20,44.7,44.7S74.6,94.7,50,94.7z"/>
	<path d="M76.3,32.7c-0.7-0.1-1.5,0.2-2,0.7L42.6,64.1L25.7,46.7c-0.5-0.5-1.3-0.8-2.1-0.8c-0.7,0-1.4,0.3-1.8,0.9
		c-1,1.2-1,2.9,0,3.7l18.8,19.4c0.5,0.5,1.2,0.8,1.9,0.8c0.7,0,1.3-0.3,1.8-0.8l33.5-32.6c0.5-0.5,0.8-1.3,0.8-2.1
		c0-0.7-0.3-1.3-0.8-1.7C77.5,33,76.9,32.7,76.3,32.7z"/>
</g>
</svg>
