<?xml version="1.0" encoding="utf-8"?>
<!-- Generator: Adobe Illustrator 21.0.0, SVG Export Plug-In . SVG Version: 6.00 Build 0)  -->
<svg version="1.1" id="Capa_1" width="32" height="32" xmlns="http://www.w3.org/2000/svg" xmlns:xlink="http://www.w3.org/1999/xlink" x="0px" y="0px"
	 viewBox="0 0 100 100" style="enable-background:new 0 0 100 100;" xml:space="preserve">
<g>
	<path d="M50,0.1C22.5,0.1,0.1,22.5,0.1,50S22.5,99.9,50,99.9S99.9,77.5,99.9,50S77.5,0.1,50,0.1z M50,91.9
		C26.9,91.9,8.1,73.1,8.1,50S26.9,8.1,50,8.1S91.9,26.9,91.9,50S73.1,91.9,50,91.9z"/>
	<path d="M51,38.8h-2c-2,0-3.5,1.1-3.5,2.6V78c0,1.4,1.5,2.6,3.5,2.6h2c2,0,3.5-1.1,3.5-2.6V41.4C54.5,39.9,53,38.8,51,38.8z"/>
	<path d="M51,19.3h-2c-1.9,0-3.5,1.6-3.5,3.5v6c0,1.9,1.6,3.5,3.5,3.5h2c1.9,0,3.5-1.6,3.5-3.5v-6C54.5,20.9,52.9,19.3,51,19.3z"/>
</g>
</svg>
