<?xml version="1.0" encoding="utf-8"?>
<!-- Generator: Adobe Illustrator 21.0.0, SVG Export Plug-In . SVG Version: 6.00 Build 0)  -->
<svg version="1.1" id="Layer_1" xmlns="http://www.w3.org/2000/svg" xmlns:xlink="http://www.w3.org/1999/xlink" x="0px" y="0px"
	 viewBox="0 0 100 100" style="enable-background:new 0 0 100 100;" xml:space="preserve">
<g>
	<path d="M51,20.5h-2c-1.4,0-2.5,0.7-2.5,1.6v36.5c0,0.9,1.1,1.6,2.5,1.6h2c1.4,0,2.5-0.7,2.5-1.7V22.1C53.5,21.2,52.4,20.5,51,20.5
		z"/>
	<path d="M51,68.6h-2c-1.4,0-2.5,1.1-2.5,2.5v6c0,1.4,1.1,2.5,2.5,2.5h2c1.4,0,2.5-1.1,2.5-2.5v-6C53.5,69.7,52.4,68.6,51,68.6z"/>
	<path d="M50,0.1C22.4,0.1,0.1,22.4,0.1,50S22.4,99.9,50,99.9S99.9,77.6,99.9,50S77.6,0.1,50,0.1z M50,94.6
		c-24.7,0-44.6-20-44.6-44.6S25.3,5.4,50,5.4S94.6,25.4,94.6,50C94.6,74.7,74.7,94.6,50,94.6z"/>
</g>
</svg>
