<?xml version="1.0" encoding="utf-8"?>
<!-- Generator: Adobe Illustrator 21.0.0, SVG Export Plug-In . SVG Version: 6.00 Build 0)  -->
<svg version="1.1" id="Capa_1" width="32" height="32" xmlns="http://www.w3.org/2000/svg" xmlns:xlink="http://www.w3.org/1999/xlink" x="0px" y="0px"
	 viewBox="0 0 100 100" style="enable-background:new 0 0 100 100;" xml:space="preserve">
<path d="M99.5,31.5C98.4,17.2,86.3,5.7,71.9,5.3C63.8,5,55.6,8.5,50,14.5C44.3,8.4,36.4,5,28.1,5.3C13.7,5.7,1.6,17.2,0.5,31.5
	c-0.1,1.2-0.1,2.5-0.1,3.7c0.2,5.1,2.4,10.2,6.1,14.3l39.2,43.4c1.1,1.2,2.7,1.9,4.3,1.9s3.2-0.7,4.4-1.9l39.1-43.4
	c3.7-4.1,5.8-9.1,6.1-14.3C99.6,34,99.6,32.7,99.5,31.5z"/>
</svg>
