<?xml version="1.0" encoding="utf-8"?>
<!-- Generator: Adobe Illustrator 21.0.0, SVG Export Plug-In . SVG Version: 6.00 Build 0)  -->
<svg version="1.1" id="Capa_1" width="32" height="32" xmlns="http://www.w3.org/2000/svg" xmlns:xlink="http://www.w3.org/1999/xlink" x="0px" y="0px"
	 viewBox="0 0 56 56" style="enable-background:new 0 0 56 56;" xml:space="preserve">
<g>
	<path d="M8.5,39.1c-4.6,0-8.4,3.8-8.4,8.4S3.8,56,8.5,56s8.4-3.8,8.4-8.4S13.1,39.1,8.5,39.1z M8.5,52.8c-2.9,0-5.3-2.4-5.3-5.3
		c0-2.9,2.4-5.3,5.3-5.3s5.3,2.4,5.3,5.3C13.7,50.4,11.4,52.8,8.5,52.8z"/>
	<path d="M28,39.1c-4.6,0-8.4,3.8-8.4,8.4S23.4,56,28,56s8.4-3.8,8.4-8.4S32.6,39.1,28,39.1z M28,52.8c-2.9,0-5.3-2.4-5.3-5.3
		c0-2.9,2.4-5.3,5.3-5.3c2.9,0,5.3,2.4,5.3,5.3C33.3,50.4,30.9,52.8,28,52.8z"/>
	<path d="M47.5,39.1c-4.6,0-8.4,3.8-8.4,8.4s3.8,8.4,8.4,8.4s8.4-3.8,8.4-8.4S52.2,39.1,47.5,39.1z M47.5,52.8
		c-2.9,0-5.3-2.4-5.3-5.3c0-2.9,2.4-5.3,5.3-5.3c2.9,0,5.3,2.4,5.3,5.3C52.8,50.4,50.4,52.8,47.5,52.8z"/>
	<path d="M8.5,19.6C3.8,19.6,0,23.4,0,28s3.8,8.4,8.4,8.4s8.4-3.8,8.4-8.4S13.1,19.6,8.5,19.6z M8.5,33.3c-2.9,0-5.3-2.4-5.3-5.3
		c0-2.9,2.4-5.3,5.3-5.3s5.3,2.4,5.3,5.3C13.7,30.9,11.4,33.3,8.5,33.3z"/>
	<path d="M28,19.6c-4.6,0-8.4,3.8-8.4,8.4s3.8,8.4,8.4,8.4s8.4-3.8,8.4-8.4S32.6,19.6,28,19.6z M28,33.3c-2.9,0-5.3-2.4-5.3-5.3
		c0-2.9,2.4-5.3,5.3-5.3c2.9,0,5.3,2.4,5.3,5.3C33.3,30.9,30.9,33.3,28,33.3z"/>
	<path d="M47.5,19.6c-4.6,0-8.4,3.8-8.4,8.4s3.8,8.4,8.4,8.4S56,32.6,56,28S52.2,19.6,47.5,19.6z M47.5,33.3c-2.9,0-5.3-2.4-5.3-5.3
		c0-2.9,2.4-5.3,5.3-5.3c2.9,0,5.3,2.4,5.3,5.3C52.8,30.9,50.4,33.3,47.5,33.3z"/>
	<path d="M8.5,0C3.8,0,0,3.8,0,8.5s3.8,8.4,8.4,8.4s8.4-3.8,8.4-8.4S13.1,0,8.5,0z M8.5,13.7c-2.9,0-5.3-2.4-5.3-5.3
		s2.4-5.3,5.3-5.3s5.3,2.4,5.3,5.3S11.4,13.7,8.5,13.7z"/>
	<path d="M28,0c-4.6,0-8.4,3.8-8.4,8.4s3.8,8.4,8.4,8.4s8.4-3.8,8.4-8.4S32.6,0,28,0z M28,13.7c-2.9,0-5.3-2.4-5.3-5.3
		s2.4-5.3,5.3-5.3c2.9,0,5.3,2.4,5.3,5.3S30.9,13.7,28,13.7z"/>
	<path d="M47.5,16.9c4.6,0,8.4-3.8,8.4-8.4S52.2,0,47.5,0s-8.4,3.8-8.4,8.4S42.9,16.9,47.5,16.9z M47.5,3.2c2.9,0,5.3,2.4,5.3,5.3
		s-2.4,5.3-5.3,5.3c-2.9,0-5.3-2.4-5.3-5.3S44.6,3.2,47.5,3.2z"/>
</g>
</svg>
