<?xml version="1.0" encoding="utf-8"?>
<!-- Generator: Adobe Illustrator 21.0.0, SVG Export Plug-In . SVG Version: 6.00 Build 0)  -->
<svg version="1.1" id="Capa_1" width="32" height="32" xmlns="http://www.w3.org/2000/svg" xmlns:xlink="http://www.w3.org/1999/xlink" x="0px" y="0px"
	 viewBox="0 0 56 56" style="enable-background:new 0 0 56 56;" xml:space="preserve">
<style type="text/css">
	.st0{display:none;}
</style>
<g>
	<path d="M8.5,39.1c-4.6,0-8.4,3.8-8.4,8.4S3.8,56,8.5,56s8.4-3.8,8.4-8.4S13.1,39.1,8.5,39.1z M8.5,52.8c-2.9,0-5.3-2.4-5.3-5.3
		c0-2.9,2.4-5.3,5.3-5.3s5.3,2.4,5.3,5.3C13.7,50.4,11.4,52.8,8.5,52.8z"/>
	<path class="st0" d="M47.5,39.1c-4.6,0-8.4,3.8-8.4,8.4s3.8,8.4,8.4,8.4s8.4-3.8,8.4-8.4S52.2,39.1,47.5,39.1z M47.5,52.8
		c-2.9,0-5.3-2.4-5.3-5.3c0-2.9,2.4-5.3,5.3-5.3c2.9,0,5.3,2.4,5.3,5.3C52.8,50.4,50.4,52.8,47.5,52.8z"/>
	<path d="M8.5,19.6C3.8,19.6,0,23.4,0,28s3.8,8.4,8.4,8.4s8.4-3.8,8.4-8.4S13.1,19.6,8.5,19.6z M8.5,33.3c-2.9,0-5.3-2.4-5.3-5.3
		c0-2.9,2.4-5.3,5.3-5.3s5.3,2.4,5.3,5.3C13.7,30.9,11.4,33.3,8.5,33.3z"/>
	<path class="st0" d="M47.5,19.6c-4.6,0-8.4,3.8-8.4,8.4s3.8,8.4,8.4,8.4S56,32.6,56,28S52.2,19.6,47.5,19.6z M47.5,33.3
		c-2.9,0-5.3-2.4-5.3-5.3c0-2.9,2.4-5.3,5.3-5.3c2.9,0,5.3,2.4,5.3,5.3C52.8,30.9,50.4,33.3,47.5,33.3z"/>
	<path d="M8.5,0C3.8,0,0,3.8,0,8.5s3.8,8.4,8.4,8.4s8.4-3.8,8.4-8.4S13.1,0,8.5,0z M8.5,13.7c-2.9,0-5.3-2.4-5.3-5.3
		s2.4-5.3,5.3-5.3s5.3,2.4,5.3,5.3S11.4,13.7,8.5,13.7z"/>
	<path class="st0" d="M47.5,16.9c4.6,0,8.4-3.8,8.4-8.4S52.2,0,47.5,0s-8.4,3.8-8.4,8.4S42.9,16.9,47.5,16.9z M47.5,3.2
		c2.9,0,5.3,2.4,5.3,5.3s-2.4,5.3-5.3,5.3c-2.9,0-5.3-2.4-5.3-5.3S44.6,3.2,47.5,3.2z"/>
</g>
<g>
	<path d="M55.4,7.1H21.5c-0.3,0-0.5,0.2-0.5,0.5v2c0,0.3,0.2,0.5,0.5,0.5h33.9c0.3,0,0.5-0.2,0.5-0.5v-2C55.9,7.3,55.7,7.1,55.4,7.1
		z"/>
	<path d="M55.4,26.5H21.5c-0.3,0-0.5,0.2-0.5,0.5v2c0,0.3,0.2,0.5,0.5,0.5h33.9c0.3,0,0.5-0.2,0.5-0.5v-2
		C55.9,26.7,55.7,26.5,55.4,26.5z"/>
	<path d="M55.4,46H21.5c-0.3,0-0.5,0.2-0.5,0.5v2c0,0.3,0.2,0.5,0.5,0.5h33.9c0.3,0,0.5-0.2,0.5-0.5v-2C55.9,46.3,55.7,46,55.4,46z"
		/>
</g>
</svg>
