<?xml version="1.0" encoding="utf-8"?>
<!-- Generator: Adobe Illustrator 21.0.0, SVG Export Plug-In . SVG Version: 6.00 Build 0)  -->
<svg version="1.1" id="Capa_1" width="32" height="32" xmlns="http://www.w3.org/2000/svg" xmlns:xlink="http://www.w3.org/1999/xlink" x="0px" y="0px"
	 viewBox="0 0 100 100" style="enable-background:new 0 0 100 100;" xml:space="preserve">
<path d="M99.4,38.4c-0.7-2.1-2.4-3.6-4.6-3.9l-27.5-4l-12.2-25c-1-2-2.9-3.2-5.1-3.2s-4.1,1.2-5.1,3.2l-12.3,25l-27.5,4
	c-2.1,0.3-3.9,1.8-4.6,3.9s-0.1,4.4,1.5,6l19.8,19.3l-4.7,27.3c-0.3,1.7,0.2,3.4,1.3,4.7c1.7,2,4.6,2.6,6.9,1.4L50,84L74.7,97
	c0.8,0.4,1.7,0.6,2.6,0.6c1.7,0,3.2-0.7,4.3-2c1.1-1.3,1.6-3,1.3-4.7l-4.7-27.4L98,44.2C99.6,42.7,100.1,40.5,99.4,38.4z M22.5,91.9
	l5-28.8c0.2-0.9-0.1-1.8-0.8-2.4L5.9,40.4c0,0-0.1-0.1-0.1-0.3C5.8,40,5.9,40,5.9,40l28.9-4.2c0.9-0.1,1.7-0.7,2.1-1.5l13-26.5
	c0-0.1,0.1-0.2,0.1-0.2s0.1,0.1,0.1,0.2l13,26.3c0.4,0.8,1.2,1.4,2.1,1.5l28.9,4.2c0,0,0.1,0,0.1,0.2c0.1,0.2,0,0.3-0.1,0.3
	L73.3,60.7c-0.6,0.6-0.9,1.5-0.8,2.4l5,28.8c0,0.1,0,0.2-0.1,0.3l0,0L51.3,78.5c-0.8-0.4-1.8-0.4-2.6,0L22.6,92.1l0,0
	C22.5,92,22.5,92,22.5,91.9z"/>
</svg>
