<?xml version="1.0" encoding="utf-8"?>
<!-- Generator: Adobe Illustrator 21.0.0, SVG Export Plug-In . SVG Version: 6.00 Build 0)  -->
<svg version="1.1" id="Capa_1" width="32" height="32" xmlns="http://www.w3.org/2000/svg" xmlns:xlink="http://www.w3.org/1999/xlink" x="0px" y="0px"
	 viewBox="0 0 100 100" style="enable-background:new 0 0 100 100;" xml:space="preserve">
<path d="M79.1,65c-4.8,0-9,1.9-12.4,5.1c-0.7,0.7-1.4,1.5-1.9,2.2L37.4,55.7c0.7-1.9,1-3.7,1-5.8s-0.3-3.9-1-5.8l27.4-16.5
	c3.2,4.6,8.5,7.5,14.3,7.5c9.7,0,17.5-7.8,17.5-17.5S88.8,0,79.1,0S61.6,7.8,61.6,17.5c0,1.9,0.3,3.7,0.9,5.6L34.9,39.7
	c-3.2-4.6-8.5-7.3-14.1-7.3c-9.7,0-17.5,7.8-17.5,17.5s7.8,17.5,17.5,17.5c5.6,0,10.9-2.7,14.1-7.3l27.6,16.7
	c-0.7,1.9-0.9,3.7-0.9,5.6c0,4.8,1.9,9,5.1,12.4c3.2,3.2,7.7,5.1,12.4,5.1s9-1.9,12.4-5.1c3.2-3.2,5.1-7.7,5.1-12.4
	c0-4.8-1.9-9-5.1-12.4C88.3,66.9,83.9,65,79.1,65z M91.7,82.5c0,3.4-1.4,6.5-3.6,8.8c-2.4,2.4-5.4,3.6-8.8,3.6s-6.5-1.4-8.8-3.6
	c-2.4-2.4-3.6-5.4-3.6-8.8s1.4-6.5,3.6-8.8c2.4-2.4,5.4-3.6,8.8-3.6s6.5,1.4,8.8,3.6C90.4,76.1,91.7,79.1,91.7,82.5z M66.7,17.5
	c0-6.8,5.6-12.4,12.4-12.4s12.6,5.6,12.6,12.4S86.1,30,79.3,30S66.7,24.3,66.7,17.5z M20.9,62.5c-6.8,0-12.4-5.6-12.4-12.4
	s5.6-12.4,12.4-12.4S33.4,43.2,33.4,50S27.7,62.5,20.9,62.5z"/>
</svg>
