<?xml version="1.0" encoding="utf-8"?>
<!-- Generator: Adobe Illustrator 21.0.0, SVG Export Plug-In . SVG Version: 6.00 Build 0)  -->
<svg version="1.1" id="Capa_1" width="32" height="32" xmlns="http://www.w3.org/2000/svg" xmlns:xlink="http://www.w3.org/1999/xlink" x="0px" y="0px"
	 viewBox="0 0 100 100" style="enable-background:new 0 0 100 100;" xml:space="preserve">
<g>
	<path d="M35.5,63.1c-0.3-0.1-0.7-0.2-1.1-0.2H3c-1.6,0-2.9,1.3-2.9,2.9c0,1.6,1.3,2.9,2.9,2.9h28.5v28.5c0,1.6,1.3,2.9,2.9,2.9
		s2.9-1.3,2.9-2.9V65.7l0,0C37.2,64.5,36.5,63.5,35.5,63.1z"/>
	<path d="M3,37.2h31.4c1.6,0,2.9-1.3,2.9-2.9V3c0-1.6-1.3-2.9-2.9-2.9S31.5,1.4,31.5,3v28.5H3l0,0c-0.8,0-1.5,0.3-2,0.8
		c-0.5,0.5-0.8,1.3-0.8,2C0.1,35.9,1.4,37.2,3,37.2z"/>
	<path d="M65.7,37.2h31.4c1.6,0,2.9-1.3,2.9-2.9s-1.3-2.9-2.9-2.9H68.6V3c0-1.6-1.3-2.9-2.9-2.9c-1.6,0-2.9,1.3-2.9,2.9v31.4
		C62.9,35.9,64.1,37.2,65.7,37.2z"/>
	<path d="M97.1,62.9H65.7c-1.6,0-2.9,1.3-2.9,2.9v31.4c0,1.6,1.3,2.9,2.9,2.9c1.6,0,2.9-1.3,2.9-2.9V68.6h28.5
		c1.6,0,2.9-1.3,2.9-2.9C100,64.1,98.7,62.9,97.1,62.9z"/>
</g>
</svg>
