<?xml version="1.0" encoding="utf-8"?>
<!-- Generator: Adobe Illustrator 21.0.0, SVG Export Plug-In . SVG Version: 6.00 Build 0)  -->
<svg version="1.1" id="Capa_1" width="32" height="32" xmlns="http://www.w3.org/2000/svg" xmlns:xlink="http://www.w3.org/1999/xlink" x="0px" y="0px"
	 viewBox="0 0 100 100" style="enable-background:new 0 0 100 100;" xml:space="preserve">
<g>
	<path d="M15.1,26.6c6.3,0,11.6-4.4,12.9-10.5h67.4c1.5,0,2.7-1.2,2.7-2.7c0-1.5-1.2-2.7-2.7-2.7H28C26.7,4.5,21.4,0.2,15.1,0.2
		C7.8,0.2,1.9,6.1,1.9,13.4S7.8,26.6,15.1,26.6z M7.4,13.4c0-4.3,3.5-7.7,7.7-7.7s7.7,3.5,7.7,7.7s-3.5,7.7-7.7,7.7
		S7.4,17.6,7.4,13.4z"/>
	<path d="M84.9,73.4c-6.3,0-11.6,4.4-12.9,10.5H4.6c-1.5,0-2.7,1.2-2.7,2.7c0,1.5,1.2,2.7,2.7,2.7H72c1.3,6.1,6.6,10.5,12.9,10.5
		c7.3,0,13.2-5.9,13.2-13.2C98.1,79.4,92.2,73.4,84.9,73.4z M92.6,86.6c0,4.3-3.5,7.7-7.7,7.7c-4.3,0-7.7-3.5-7.7-7.7
		c0-4.3,3.5-7.7,7.7-7.7C89.2,78.9,92.6,82.4,92.6,86.6z"/>
	<path d="M95.4,47.3H63.7c-1.1-6.4-6.8-11.2-13.4-11.2S38.1,40.9,37,47.3H4.6c-1.5,0-2.7,1.2-2.7,2.7c0,1.5,1.2,2.7,2.7,2.7h32.5
		c1.4,6.1,6.9,10.5,13.2,10.5c6.3,0,11.8-4.4,13.2-10.5h31.8c1.5,0,2.7-1.2,2.7-2.7C98.1,48.5,96.9,47.3,95.4,47.3z M58.5,49.6
		c0,4.5-3.6,8.1-8.1,8.1c-4.5,0-8.1-3.6-8.1-8.1s3.6-8.1,8.1-8.1C54.8,41.5,58.5,45.2,58.5,49.6z"/>
</g>
</svg>
