<?xml version="1.0" encoding="utf-8"?>
<!-- Generator: Adobe Illustrator 21.0.0, SVG Export Plug-In . SVG Version: 6.00 Build 0)  -->
<svg version="1.1" id="Capa_1" width="32" height="32" xmlns="http://www.w3.org/2000/svg" xmlns:xlink="http://www.w3.org/1999/xlink" x="0px" y="0px"
	 viewBox="0 0 100 100" style="enable-background:new 0 0 100 100;" xml:space="preserve">
<path d="M54.4,50L99.1,5.4C99.7,4.8,100,4,100,3.1c0-0.8-0.3-1.6-0.9-2.2C98.5,0.4,97.7,0,96.9,0c0,0,0,0,0,0
	c-0.8,0-1.7,0.3-2.2,0.9L50,45.6L5.4,0.9c-1.2-1.2-3.2-1.2-4.4,0C0.3,1.5,0,2.3,0,3.1C0,4,0.3,4.8,0.9,5.4L45.6,50L0.9,94.6
	C0.3,95.2,0,96,0,96.9s0.3,1.6,0.9,2.2c1.2,1.2,3.2,1.2,4.4,0L50,54.4l44.6,44.6c0.6,0.6,1.4,0.9,2.2,0.9c0.8,0,1.6-0.3,2.2-0.9
	c0.6-0.6,0.9-1.4,0.9-2.2c0-0.8-0.3-1.6-0.9-2.2L54.4,50z"/>
</svg>
