<?xml version="1.0" encoding="utf-8"?>
<!-- Generator: Adobe Illustrator 21.0.0, SVG Export Plug-In . SVG Version: 6.00 Build 0)  -->
<svg version="1.1" id="Capa_1" width="32" height="32" xmlns="http://www.w3.org/2000/svg" xmlns:xlink="http://www.w3.org/1999/xlink" x="0px" y="0px"
	 viewBox="0 0 100 100" style="enable-background:new 0 0 100 100;" xml:space="preserve">
<g>
	<path id="_x31_" d="M24.6000023,96.6999969V3.2999959c0-1.6999968-1.3999996-3.0999985-3.1000004-3.0999985
		s-3.1000004,1.4000015-3.1000004,3.0999985v93.4000015c0,1.7000046,1.3999996,3.1000061,3.1000004,3.1000061
		S24.6000023,98.4000015,24.6000023,96.6999969z"/>
	<path id="_x32_" d="M49.9333382,87.5h-0.0000076c-1.7120819,0-3.0999985-1.3879166-3.0999985-3.0999985V15.5999966
		c0-1.712081,1.3879166-3.0999966,3.0999985-3.0999966h0.0000076c1.7120781,0,3.0999947,1.3879156,3.0999947,3.0999966v68.8000031
		C53.0333328,86.1120834,51.6454163,87.5,49.9333382,87.5z"/>
	<path id="_x33_" d="M78.5166702,75h-0.0000076c-1.7120819,0-3.0999985-1.3879166-3.0999985-3.0999985V28.0999966
		c0-1.71208,1.3879166-3.0999966,3.0999985-3.0999966h0.0000076c1.7120819,0,3.0999985,1.3879166,3.0999985,3.0999966v43.8000031
		C81.6166687,73.6120834,80.2287521,75,78.5166702,75z"/>
</g>
</svg>
