<?xml version="1.0" encoding="utf-8"?>
<!-- Generator: Adobe Illustrator 21.0.0, SVG Export Plug-In . SVG Version: 6.00 Build 0)  -->
<svg version="1.1" id="Capa_1" width="32" height="32" xmlns="http://www.w3.org/2000/svg" xmlns:xlink="http://www.w3.org/1999/xlink" x="0px" y="0px"
	 viewBox="0 0 100 100" style="enable-background:new 0 0 100 100;" xml:space="preserve">
<g>
	<path d="M3.3,24.6h93.4c1.7,0,3.1-1.4,3.1-3.1s-1.4-3.1-3.1-3.1H3.3c-1.7,0-3.1,1.4-3.1,3.1S1.6,24.6,3.3,24.6z"/>
	<path d="M96.7,46.9H3.3c-1.7,0-3.1,1.4-3.1,3.1s1.4,3.1,3.1,3.1h93.4c1.7,0,3.1-1.4,3.1-3.1S98.4,46.9,96.7,46.9z"/>
	<path d="M96.7,75.4H3.3c-1.7,0-3.1,1.4-3.1,3.1s1.4,3.1,3.1,3.1h93.4c1.7,0,3.1-1.4,3.1-3.1S98.4,75.4,96.7,75.4z"/>
</g>
</svg>
