<?xml version="1.0" encoding="utf-8"?>
<!-- Generator: Adobe Illustrator 21.0.0, SVG Export Plug-In . SVG Version: 6.00 Build 0)  -->
<svg version="1.1" id="Capa_1" width="32" height="32" xmlns="http://www.w3.org/2000/svg" xmlns:xlink="http://www.w3.org/1999/xlink" x="0px" y="0px"
	 viewBox="0 0 100 100" style="enable-background:new 0 0 100 100;" xml:space="preserve">
<g>
	<path d="M94,7H83.3V2.7c0-1.1-1-2.4-2.4-2.4H69.4c-1.1,0-2.4,1-2.4,2.4V7H32.5V2.7c0-1.1-1-2.4-2.4-2.4H18.8c-1.1,0-2.4,1-2.4,2.4
		V7H6C4.9,7,3.7,8,3.7,9.4v87.9c0,1.1,1,2.4,2.4,2.4H94c1.1,0,2.4-1,2.4-2.4v-88C96.3,8,95.3,7,94,7z M91.8,29.5V95H8.4V29.5H91.8z
		 M21.4,13.5V5h6.8v8.6H21.4z M71.8,13.5V5h6.8v8.6H71.8z M19.2,18.3h11.5c1.1,0,2.4-1,2.4-2.4v-4.3h34.4v4.3c0,1.1,1,2.4,2.4,2.4
		h11.4c1.1,0,2.4-1,2.4-2.4v-4.3H92V25H8.4V11.6h8.5v4.3C16.8,17,17.8,18.3,19.2,18.3z"/>
	<path d="M81.6,37.9H18.4v48.6h63.3V37.9z M77,71.8v10.1H66.9V71.8H77z M77,57.1v10.2H66.9V57.1H77z M77,42.4v10.2H66.9V42.4H77z
		 M62.4,71.8v10.1H52.4V71.8H62.4z M62.4,57.1v10.2H52.4V57.1H62.4z M62.4,42.4v10.2H52.4V42.4H62.4z M37.6,52.6V42.4h10.1v10.2
		H37.6z M37.6,67.3V57.1h10.1v10.2H37.6z M47.7,71.8v10.1H37.6V71.8H47.7z M33,71.8v10.1H22.9V71.8H33z M33.1,57.1v10.2H23V57.1
		H33.1z M33.1,42.4v10.2H23V42.4H33.1z"/>
</g>
</svg>
