<?xml version="1.0" encoding="utf-8"?>
<!-- Generator: Adobe Illustrator 21.0.0, SVG Export Plug-In . SVG Version: 6.00 Build 0)  -->
<svg version="1.1" id="Capa_1" width="32" height="32" xmlns="http://www.w3.org/2000/svg" xmlns:xlink="http://www.w3.org/1999/xlink" x="0px" y="0px"
	 viewBox="0 0 100 100" style="enable-background:new 0 0 100 100;" xml:space="preserve">
<path d="M88.7,2.2H11.2c-6,0-11,4.9-11,11v53.1c0,6,4.9,11,11,11h10.5l9.4,19c0.4,0.9,1.4,1.6,2.5,1.6c1,0,1.9-0.5,2.5-1.5l9.4-18.9
	h43.2c6,0,11-4.9,11-11V13.2C99.7,7.2,94.8,2.2,88.7,2.2z M94.3,13.2v53.1c0,3-2.4,5.4-5.4,5.4H43.8c-1.1,0-2.1,0.6-2.5,1.5
	l-7.7,15.4l-7.7-15.4c-0.4-0.9-1.4-1.6-2.5-1.6H11.2c-2.9,0-5.3-2.4-5.3-5.3V13.2c0-3,2.4-5.4,5.4-5.4h77.6
	C91.9,7.8,94.3,10.2,94.3,13.2z"/>
</svg>
