<?xml version="1.0" encoding="utf-8"?>
<!-- Generator: Adobe Illustrator 21.0.0, SVG Export Plug-In . SVG Version: 6.00 Build 0)  -->
<svg version="1.1" id="Capa_1" width="32" height="32" xmlns="http://www.w3.org/2000/svg" xmlns:xlink="http://www.w3.org/1999/xlink" x="0px" y="0px"
	 viewBox="0 0 100 100" style="enable-background:new 0 0 100 100;" xml:space="preserve">
<path d="M50,1.5L50,1.5C23.2,1.5,1.5,23.2,1.5,50S23.2,98.5,50,98.5S98.5,76.8,98.5,50C98.4,23.3,76.7,1.6,50,1.5z M52.3,70.3V52.5
	h20.5c-0.2,6.8-1.2,13.5-3.2,19.9C64.2,71.2,58.4,70.5,52.3,70.3z M64.4,91.3c3.6-4,6.5-8.6,8.4-13.6c3.1,0.8,6,1.7,8.6,2.8
	C76.6,85.4,70.8,89.1,64.4,91.3z M52.3,93.5V75c5.5,0.1,10.8,0.7,15.7,1.7C64.2,86.2,58.5,92.3,52.3,93.5z M72.8,47.8H52.3v-18
	c5.7-0.1,11.5-0.8,17.3-1.9C71.6,34.2,72.7,40.9,72.8,47.8z M72.7,22.3c-1.8-5-4.6-9.7-8.2-13.7c6.4,2.3,12.2,6,16.9,10.9
	C78.5,20.6,75.7,21.5,72.7,22.3z M52.3,25V6.5c6.2,1.2,11.9,7.3,15.7,16.9C63,24.3,57.7,24.9,52.3,25z M93.6,52.5
	c-0.4,9-3.6,17.4-9,24.3c-3.4-1.5-6.9-2.8-10.3-3.7c2-6.7,3.1-13.7,3.3-20.6H93.6z M93.6,47.6H77.5c-0.2-7-1.3-14-3.3-20.8
	c3.5-0.8,6.9-2,10.3-3.5C90,30.3,93.1,38.7,93.6,47.6z M27.2,77.5c1.8,5.1,4.7,9.8,8.3,13.8c-6.4-2.2-12.3-6-17.1-11
	C21.3,79.2,24.2,78.3,27.2,77.5z M27.2,52.2h20.5v17.9c-5.7,0.1-11.5,0.8-17.3,1.9C28.4,65.7,27.3,59,27.2,52.2z M47.6,75v18.6
	c-6.2-1.2-11.9-7.3-15.7-16.9C37,75.7,42.3,75.1,47.6,75z M25.8,73.2c-3.4,0.8-6.8,1.9-10.3,3.4c-5.4-7-8.5-15.3-9-24.3l16.1,0.1
	C22.6,59.3,23.7,66.3,25.8,73.2z M6.4,47.5c0.4-9,3.6-17.4,9-24.3c3.4,1.5,6.9,2.8,10.3,3.7c-2,6.7-3.1,13.7-3.3,20.6H6.4z
	 M47.6,29.7v17.8H27.2c0.2-6.8,1.2-13.5,3.2-19.9C35.8,28.8,41.6,29.5,47.6,29.7z M18.6,19.5c4.8-4.9,10.6-8.6,16.9-10.8
	c-3.6,3.9-6.4,8.5-8.3,13.6C24.1,21.5,21.3,20.6,18.6,19.5z M47.6,6.5V25c-5.5-0.1-10.8-0.7-15.7-1.7C35.8,13.8,41.5,7.7,47.6,6.5z"
	/>
</svg>
