<?xml version="1.0" encoding="utf-8"?>
<!-- Generator: Adobe Illustrator 21.0.0, SVG Export Plug-In . SVG Version: 6.00 Build 0)  -->
<svg version="1.1" id="Capa_1" width="32" height="32" xmlns="http://www.w3.org/2000/svg" xmlns:xlink="http://www.w3.org/1999/xlink" x="0px" y="0px"
	 viewBox="0 0 100 100" style="enable-background:new 0 0 100 100;" xml:space="preserve">
<path d="M99.7,22.6c-0.1-2.7-2.3-4.8-4.9-4.8H5.2c-2.7,0-4.9,2.2-4.9,4.9v54.7c0,2.7,2.2,4.9,4.9,4.9h89.6c2.7,0,4.9-2.2,4.9-4.9
	L99.7,22.6z M93.8,22.5L50,49.9L6.2,22.5L93.8,22.5z M5.2,70.8V27.4l30.6,19.1L5.2,70.8z M5.1,76.9l34.8-27.6l8.6,5.5
	c0.8,0.5,1.8,0.5,2.6,0l8.6-5.5L94.7,77l0.1,0.4c0,0,0,0.1-0.1,0.1H5.2c-0.1,0-0.1,0-0.1-0.1V76.9z M94.8,27.7v43.1L64.2,46.6
	L94.8,27.7z"/>
</svg>
