<?xml version="1.0" encoding="utf-8"?>
<!-- Generator: Adobe Illustrator 21.0.0, SVG Export Plug-In . SVG Version: 6.00 Build 0)  -->
<svg version="1.1"
	 id="Layer_1" xmlns:cc="http://creativecommons.org/ns#" xmlns:dc="http://purl.org/dc/elements/1.1/" xmlns:inkscape="http://www.inkscape.org/namespaces/inkscape" xmlns:rdf="http://www.w3.org/1999/02/22-rdf-syntax-ns#" xmlns:sodipodi="http://sodipodi.sourceforge.net/DTD/sodipodi-0.dtd" xmlns:svg="http://www.w3.org/2000/svg"
	 xmlns="http://www.w3.org/2000/svg" xmlns:xlink="http://www.w3.org/1999/xlink" x="0px" y="0px" viewBox="0 0 100 100"
	 style="enable-background:new 0 0 100 100;" xml:space="preserve">
<path d="M70.2,50.7c6.5-5.5,10.2-13.4,10.2-21.8c0-15.7-12.8-28.5-28.5-28.5S23.3,13.2,23.3,28.9c0,8.4,3.7,16.3,10.2,21.8
	C16.5,58,5.2,76.6,5.2,97.1c0,1.5,1.2,2.8,2.8,2.8h87.8c1.5,0,2.8-1.2,2.8-2.8C98.5,76.6,87.1,58,70.2,50.7z M51.8,6
	c12.7,0,23,10.3,23,23c0,8.2-4.4,15.8-11.5,19.9l-0.2,0.1c0,0,0,0-0.1,0c-0.2,0.1-0.4,0.2-0.6,0.4l-0.1,0c-3.3,1.7-6.8,2.6-10.6,2.6
	c-12.7,0-23-10.3-23-23S39.2,6,51.8,6z M39.2,54.4c4,2,8.2,3,12.6,3c4.4,0,8.6-1,12.6-3c15.7,4.9,27.4,21.2,28.4,39.8h-82
	C11.9,75.7,23.5,59.3,39.2,54.4z"/>
</svg>
