<?xml version="1.0" encoding="utf-8"?>
<!-- Generator: Adobe Illustrator 21.0.0, SVG Export Plug-In . SVG Version: 6.00 Build 0)  -->
<svg version="1.1" id="Capa_1" width="32" height="32" xmlns="http://www.w3.org/2000/svg" xmlns:xlink="http://www.w3.org/1999/xlink" x="0px" y="0px"
	 viewBox="0 0 100 100" style="enable-background:new 0 0 100 100;" xml:space="preserve">
<g>
	<path d="M86.1,36.2L86.1,36.2c-20-19.9-52.5-19.9-72.4,0L0,49.8l14,14c9.7,9.7,22.5,15,36.3,15c13.7,0,26.6-5.3,36.3-15L100,50.2
		L86.1,36.2z M17.3,60.4L6.8,49.8l10.4-10.4c18.1-18.1,47.5-18.1,65.6,0L93.3,50L82.9,60.4C64.8,78.4,35.4,78.4,17.3,60.4z"/>
	<path d="M50,27.7c-12.3,0-22.3,10-22.3,22.3c0,12.3,10,22.3,22.3,22.3c12.3,0,22.3-10,22.3-22.3C72.3,37.7,62.3,27.7,50,27.7z
		 M50,67.4c-9.6,0-17.4-7.8-17.4-17.4S40.4,32.6,50,32.6S67.4,40.4,67.4,50S59.6,67.4,50,67.4z"/>
</g>
</svg>
