<?xml version="1.0" encoding="utf-8"?>
<!-- Generator: Adobe Illustrator 21.0.0, SVG Export Plug-In . SVG Version: 6.00 Build 0)  -->
<svg version="1.1" id="Capa_1" width="32" height="32" xmlns="http://www.w3.org/2000/svg" xmlns:xlink="http://www.w3.org/1999/xlink" x="0px" y="0px"
	 viewBox="0 0 100 100" style="enable-background:new 0 0 100 100;" xml:space="preserve">
<g>
	<path d="M99,17.7c-0.4-0.4-1-1-2.1-1H19.9L17.9,6.7c-0.1-1.2-1.6-2.2-2.6-2.2H3c-1.6,0-2.6,1.1-2.6,2.6S1.5,9.8,3,9.8h10.1
		l9.7,49.3C24.1,65.8,30.5,71,37.3,71h47c1.6,0,2.6-1.1,2.6-2.6s-1.1-2.6-2.6-2.6H37.8c-2.9,0-5.6-1.3-7.1-3.4l58.6-8
		c1.1,0,2.2-1,2.2-2.2l8.2-32.6l0-0.1C99.6,19.3,99.6,18.3,99,17.7z M93.3,21.6l-6.7,27.9L28,57.1l-7.1-35.5H93.3z"/>
	<path d="M35.7,73.9c-6.1,0-10.8,4.7-10.8,10.8c0,6.1,4.7,10.8,10.8,10.8c6.1,0,10.8-4.7,10.8-10.8C46.5,78.6,41.8,73.9,35.7,73.9z
		 M41.2,84.7c0,2.9-2.6,5.5-5.5,5.5s-5.5-2.6-5.5-5.5s2.6-5.5,5.5-5.5S41.2,81.8,41.2,84.7z"/>
	<path d="M76.5,73.9c-6.1,0-10.8,4.7-10.8,10.8c0,6.1,4.7,10.8,10.8,10.8c6.1,0,10.8-4.7,10.8-10.8C87.3,78.6,82.6,73.9,76.5,73.9z
		 M82.1,84.7c0,2.9-2.6,5.5-5.5,5.5S71,87.7,71,84.7s2.6-5.5,5.5-5.5S82.1,81.8,82.1,84.7z"/>
</g>
</svg>
