<?xml version="1.0" encoding="utf-8"?>
<!-- Generator: Adobe Illustrator 21.0.0, SVG Export Plug-In . SVG Version: 6.00 Build 0)  -->
<svg version="1.1" id="Capa_1" width="32" height="32" xmlns="http://www.w3.org/2000/svg" xmlns:xlink="http://www.w3.org/1999/xlink" x="0px" y="0px"
	 viewBox="0 0 100 100" style="enable-background:new 0 0 100 100;" xml:space="preserve">
<g>
	<path d="M0.4,19.4l0,0.1l8.2,32.6c0,1.1,1.1,2.2,2.2,2.2l58.6,8c-1.6,2.1-4.3,3.4-7.1,3.4H15.7c-1.6,0-2.6,1.1-2.6,2.6
		s1.1,2.6,2.6,2.6h47c6.9,0,13.2-5.2,14.5-11.9l9.7-49.3H97c1.6,0,2.6-1.1,2.6-2.6S98.5,4.5,97,4.5H84.7c-1,0-2.6,1-2.6,2.2
		l-1.9,10.1H3c-1.1,0-1.6,0.6-2.1,1C0.4,18.3,0.4,19.3,0.4,19.4z M79.1,21.6L72,57.1l-58.7-7.6L6.7,21.6H79.1z"/>
	<path d="M53.5,84.7c0,6.1,4.7,10.8,10.8,10.8c6.1,0,10.8-4.7,10.8-10.8c0-6.1-4.7-10.8-10.8-10.8C58.2,73.9,53.5,78.6,53.5,84.7z
		 M64.3,79.2c2.9,0,5.5,2.6,5.5,5.5s-2.6,5.5-5.5,5.5s-5.5-2.6-5.5-5.5S61.3,79.2,64.3,79.2z"/>
	<path d="M12.6,84.7c0,6.1,4.7,10.8,10.8,10.8c6.1,0,10.8-4.7,10.8-10.8c0-6.1-4.7-10.8-10.8-10.8C17.4,73.9,12.6,78.6,12.6,84.7z
		 M23.5,79.2c2.9,0,5.5,2.6,5.5,5.5s-2.6,5.5-5.5,5.5s-5.5-2.6-5.5-5.5S20.5,79.2,23.5,79.2z"/>
</g>
</svg>
