<?xml version="1.0" encoding="utf-8"?>
<!-- Generator: Adobe Illustrator 21.0.0, SVG Export Plug-In . SVG Version: 6.00 Build 0)  -->
<svg version="1.1" id="Capa_1" width="32" height="32" xmlns="http://www.w3.org/2000/svg" xmlns:xlink="http://www.w3.org/1999/xlink" x="0px" y="0px"
	 viewBox="0 0 100 100" style="enable-background:new 0 0 100 100;" xml:space="preserve">
<path d="M84.3,22.3c-0.1-2.2-1.9-3.8-3.9-3.8H69C68.5,8.3,60.2,0.2,50,0.2c-10.2,0-18.6,8.1-19,18.3H19.7c-2.2,0-3.9,1.8-3.9,3.9
	l-2.7,68.6c-0.1,2.3,0.7,4.6,2.3,6.3c1.6,1.7,3.7,2.6,6.1,2.6h57c2.3,0,4.4-0.9,6.1-2.6c1.5-1.7,2.3-3.9,2.3-6.2L84.3,22.3z M50,5.1
	c7.5,0,13.7,5.9,14.2,13.4l-28.4-0.1C36.3,11,42.5,5.1,50,5.1z M31,23.4v8.2c0,1.4,1.1,2.5,2.5,2.5s2.5-1.1,2.5-2.5v-8.2h28.3v8.2
	c0,1.4,1.1,2.5,2.5,2.5s2.5-1.1,2.5-2.5v-8.2h10.3l2.6,67.6c-0.1,1-0.5,2-1.2,2.7c-0.7,0.7-1.6,1.1-2.5,1.1h-57
	c-1,0-1.9-0.4-2.6-1.1c-0.7-0.7-1-1.6-0.9-2.6l2.6-67.7H31z"/>
</svg>
