<?xml version="1.0" encoding="utf-8"?>
<!-- Generator: Adobe Illustrator 21.0.0, SVG Export Plug-In . SVG Version: 6.00 Build 0)  -->
<svg version="1.1" id="Capa_1" width="32" height="32" xmlns="http://www.w3.org/2000/svg" xmlns:xlink="http://www.w3.org/1999/xlink" x="0px" y="0px"
	 viewBox="0 0 100 100" style="enable-background:new 0 0 100 100;" xml:space="preserve">
<path d="M84.3,22.4L84.3,22.4c-0.1-2.2-1.9-3.9-3.9-3.9H69C68.5,8.3,60.2,0.2,50,0.2c-10.2,0-18.6,8.1-19,18.3H19.7
	c-2.2,0-3.9,1.8-3.9,3.9l-2.7,68.6c-0.1,2.3,0.7,4.6,2.3,6.3c1.6,1.7,3.7,2.6,6.1,2.6h56.9c2.3,0,4.4-0.9,6.1-2.6
	c1.5-1.7,2.3-3.9,2.3-6.3L84.3,22.4z M50,5.1c7.5,0,13.7,5.9,14.2,13.4l-28.4-0.1C36.3,11,42.5,5.1,50,5.1z"/>
</svg>
