<?xml version="1.0" encoding="utf-8"?>
<!-- Generator: Adobe Illustrator 21.0.0, SVG Export Plug-In . SVG Version: 6.00 Build 0)  -->
<svg version="1.1" id="Capa_1" width="32" height="32" xmlns="http://www.w3.org/2000/svg" xmlns:xlink="http://www.w3.org/1999/xlink" x="0px" y="0px"
	 viewBox="0 0 100 100" style="enable-background:new 0 0 100 100;" xml:space="preserve">
<g>
	<path d="M76,46.7L41.1,22.9c-1.2-0.8-2.8-0.9-4.1-0.2s-2.1,2-2.1,3.5v47.6c0,1.5,0.8,2.8,2.1,3.5c0.6,0.3,1.2,0.5,1.9,0.5
		c0.8,0,1.6-0.2,2.2-0.7L76,53.3c1.1-0.7,1.7-2,1.7-3.3C77.8,48.7,77.1,47.4,76,46.7z"/>
	<path d="M50,0C22.4,0,0,22.4,0,50s22.4,50,50,50s50-22.4,50-50S77.6,0,50,0z M50,92C26.8,92,8,73.2,8,50S26.8,8,50,8s42,18.8,42,42
		S73.2,92,50,92z"/>
</g>
</svg>
