<?xml version="1.0" encoding="utf-8"?>
<!-- Generator: Adobe Illustrator 21.0.0, SVG Export Plug-In . SVG Version: 6.00 Build 0)  -->
<svg version="1.1" id="Capa_1" width="32" height="32" xmlns="http://www.w3.org/2000/svg" xmlns:xlink="http://www.w3.org/1999/xlink" x="0px" y="0px"
	 viewBox="0 0 100 100" style="enable-background:new 0 0 100 100;" xml:space="preserve">
<g>
	<path d="M76,47.8L40,23.3c-0.8-0.5-1.8-0.6-2.7-0.1c-0.9,0.5-1.4,1.3-1.4,2.3v49c0,1,0.5,1.9,1.4,2.3c0.4,0.2,0.8,0.3,1.2,0.3
		c0.5,0,1-0.2,1.5-0.5l36-24.4c0.7-0.5,1.1-1.3,1.1-2.2S76.7,48.3,76,47.8z"/>
	<path d="M50,0C22.4,0,0,22.4,0,50s22.4,50,50,50s50-22.4,50-50S77.6,0,50,0z M50,94.8C25.3,94.8,5.2,74.7,5.2,50S25.3,5.2,50,5.2
		S94.8,25.3,94.8,50S74.7,94.8,50,94.8z"/>
</g>
</svg>
