<?xml version="1.0" encoding="utf-8"?>
<!-- Generator: Adobe Illustrator 21.0.0, SVG Export Plug-In . SVG Version: 6.00 Build 0)  -->
<svg version="1.1"
	 id="Layer_1" xmlns:cc="http://creativecommons.org/ns#" xmlns:dc="http://purl.org/dc/elements/1.1/" xmlns:inkscape="http://www.inkscape.org/namespaces/inkscape" xmlns:rdf="http://www.w3.org/1999/02/22-rdf-syntax-ns#" xmlns:sodipodi="http://sodipodi.sourceforge.net/DTD/sodipodi-0.dtd" xmlns:svg="http://www.w3.org/2000/svg"
	 xmlns="http://www.w3.org/2000/svg" xmlns:xlink="http://www.w3.org/1999/xlink" x="0px" y="0px" viewBox="0 0 100 100"
	 style="enable-background:new 0 0 100 100;" xml:space="preserve">
<style type="text/css">
	.st0{display:none;enable-background:new    ;}
	.st1{display:inline;}
</style>
<g>
	<path d="M99.7,38.1c0.1-1.6-0.5-3.2-1.7-4.4c-1.2-1.2-2.8-1.9-4.6-1.9H75.2l-23-30.7c-0.4-0.6-1.2-1-2-1c-0.8,0-1.5,0.4-1.9,1
		l-23,30.7H6.7c-3.5,0-6.3,2.8-6.3,6.3V46c0,3.5,2.8,6.3,6.3,6.3h1.9L15,91.2c0.8,5,5,8.6,10.1,8.6H75c5,0,9.3-3.6,10.1-8.6
		l6.4-38.9h1.9c3.5,0,6.3-2.8,6.3-6.3L99.7,38.1z M5.1,38.1c0-0.8,0.7-1.5,1.6-1.5h15l-0.8,1.1c-0.1,0-0.2,0-0.3,0
		c-2.4,0-4.4,2-4.4,4.4c0,2.4,2,4.4,4.4,4.4c2.4,0,4.4-2,4.4-4.4c0-0.5-0.1-1.1-0.3-1.6l3-4h45.1l3,4c-0.2,0.4-0.3,0.9-0.3,1.6
		c0,2.4,2,4.4,4.4,4.4c2.4,0,4.4-2,4.4-4.4c0-2.4-2-4.4-4.4-4.4c-0.1,0-0.2,0-0.3,0l-0.8-1.1h15c0.8,0,1.6,0.8,1.6,1.6V46
		c0,0.8-0.8,1.6-1.6,1.6H6.7c-0.8,0-1.6-0.8-1.6-1.6V38.1z M31.3,31.8L50.2,6.5l19,25.3H31.3z M13.5,52.4h73.6l-6.4,38.1
		c-0.5,2.7-2.8,4.6-5.4,4.6h-50c-2.7,0-5-2-5.4-4.6L13.5,52.4z M50.2,1.3L50.2,1.3L50.2,1.3L50.2,1.3z"/>
	<path d="M66.1,92c1.3,0,2.4-1.1,2.4-2.4V57.9c0-1.3-1.1-2.4-2.4-2.4c-1.3,0-2.4,1.1-2.4,2.4v31.7C63.7,90.9,64.8,92,66.1,92z"/>
	<path d="M34.5,92c1.3,0,2.4-1.1,2.4-2.4V57.9c0-1.3-1.1-2.4-2.4-2.4s-2.4,1.1-2.4,2.4v31.7C32.1,90.9,33.2,92,34.5,92z"/>
	<path d="M50.3,92c1.3,0,2.4-1.1,2.4-2.4V57.9c0-1.3-1.1-2.4-2.4-2.4c-1.3,0-2.4,1.1-2.4,2.4v31.7C47.9,90.9,49,92,50.3,92z"/>
</g>
<text transform="matrix(1 0 0 1 -14 113)" class="st0" style="font-family:'HelveticaNeue-Bold'; font-size:5px;">Created by Kokota</text>
<text transform="matrix(1 0 0 1 -14 118)" class="st0" style="font-family:'HelveticaNeue-Bold'; font-size:5px;">from the Noun Project</text>
</svg>
