<?xml version="1.0" encoding="utf-8"?>
<!-- Generator: Adobe Illustrator 21.0.0, SVG Export Plug-In . SVG Version: 6.00 Build 0)  -->
<svg version="1.1" id="Capa_1" width="32" height="32" xmlns="http://www.w3.org/2000/svg" xmlns:xlink="http://www.w3.org/1999/xlink" x="0px" y="0px"
	 viewBox="0 0 100 100" style="enable-background:new 0 0 100 100;" xml:space="preserve">
<path d="M90.6,0.3H9.5c-5,0-9.1,4.1-9.1,9.1v81.2c0,5,4.1,9.1,9.1,9.1h81.2c5,0,9.1-4.1,9.1-9.1V9.5C99.8,4.4,95.7,0.3,90.6,0.3z
	 M90.6,94.4H9.5c-2.1,0-3.9-1.7-3.9-3.9V9.5c0-2.1,1.7-3.9,3.9-3.9h81.2c2.1,0,3.9,1.7,3.9,3.9v81.1C94.5,92.7,92.8,94.4,90.6,94.4z
	"/>
</svg>
