<?xml version="1.0" encoding="utf-8"?>
<!-- Generator: Adobe Illustrator 21.0.0, SVG Export Plug-In . SVG Version: 6.00 Build 0)  -->
<svg version="1.1" id="Capa_1" width="32" height="32" xmlns="http://www.w3.org/2000/svg" xmlns:xlink="http://www.w3.org/1999/xlink" x="0px" y="0px"
	 viewBox="0 0 100 100" style="enable-background:new 0 0 100 100;" xml:space="preserve">
<g>
	<path d="M14,36.2C6.4,36.2,0.2,42.4,0.2,50c0,7.6,6.2,13.8,13.9,13.8C21.8,63.8,28,57.6,28,50C28,42.5,21.6,36.2,14,36.2z M23.1,50
		c0,5-4.1,9.1-9.1,9.1S4.9,55,4.9,50S9,40.9,14,40.9S23.1,45,23.1,50z"/>
	<path d="M86,36.2c-7.6,0-13.8,6.2-13.8,13.8c0,7.5,6.3,13.8,13.8,13.8c7.5,0,13.9-6.3,13.9-13.8C99.9,42.4,93.7,36.2,86,36.2z
		 M95.1,50c0,5-4.1,9.1-9.1,9.1c-5,0-9.1-4.1-9.1-9.1s4.1-9.1,9.1-9.1C91,40.9,95.1,45,95.1,50z"/>
	<path d="M50,36.2c-7.6,0-13.8,6.2-13.8,13.8c0,7.5,6.3,13.8,13.8,13.8S63.8,57.5,63.8,50C63.8,42.4,57.6,36.2,50,36.2z M50,59.1
		c-5,0-9.1-4.1-9.1-9.1s4.1-9.1,9.1-9.1s9.1,4.1,9.1,9.1S55,59.1,50,59.1z"/>
</g>
</svg>
