<?xml version="1.0" encoding="utf-8"?>
<!-- Generator: Adobe Illustrator 21.0.0, SVG Export Plug-In . SVG Version: 6.00 Build 0)  -->
<svg version="1.1" id="Capa_1" width="32" height="32" xmlns="http://www.w3.org/2000/svg" xmlns:xlink="http://www.w3.org/1999/xlink" x="0px" y="0px"
	 viewBox="0 0 100 100" style="enable-background:new 0 0 100 100;" xml:space="preserve">
<g>
	<path d="M35,21.1L47.5,8.4v57.4c0,1.4,1.1,2.5,2.5,2.5c1.4,0,2.5-1,2.5-2.5V8.4l12.5,12.5c0.9,0.9,2.5,0.9,3.4,0
		c0.9-0.9,0.9-2.5,0-3.4L51.7,0.9c-0.2-0.2-0.4-0.4-0.7-0.5c-0.6-0.3-1.4-0.3-2,0c-0.2,0.1-0.5,0.3-0.8,0.6L31.6,17.5
		c-0.4,0.4-0.7,1-0.7,1.7c0,0.6,0.2,1.3,0.7,1.7C32.6,21.9,33.7,22,35,21.1z"/>
	<path d="M61.7,26.8c-1.4,0-2.5,1.1-2.5,2.5c0,1.4,1.1,2.5,2.5,2.5h20.8v63.4h-65V31.7h20.8c1.4,0,2.5-1.1,2.5-2.5
		c0-1.4-1.1-2.5-2.5-2.5H12.7v73h74.7V26.8H61.7z"/>
</g>
</svg>
