<?xml version="1.0" encoding="utf-8"?>
<!-- Generator: Adobe Illustrator 21.0.0, SVG Export Plug-In . SVG Version: 6.00 Build 0)  -->
<svg version="1.1" id="Capa_1" width="32" height="32" xmlns="http://www.w3.org/2000/svg" xmlns:xlink="http://www.w3.org/1999/xlink" x="0px" y="0px"
	 viewBox="0 0 100 100" style="enable-background:new 0 0 100 100;" xml:space="preserve">
<g>
	<path d="M92,68.7c-14.6-11.7-19.9-6-25.6,0l-1,1c-1,0.9-3.9,0-7.3-2.2c-3.8-2.5-8.5-6.6-13.7-11.8c-17.2-17.3-14.1-20.9-13.9-21
		l1-1c5.9-5.8,11.4-11.2-0.3-25.6c-3.9-4.8-7.8-7.2-11.8-7.4C13.7,0.3,9,5.2,5.5,8.9C5,9.5,4.4,10.1,3.8,10.7
		C-0.5,14.9-0.6,24,3.6,35C8,46.8,16.9,59.8,28.6,71.4C40.1,82.9,53,91.8,65,96.4c5.5,2.1,10.4,3.1,14.6,3.1c4.3,0,7.7-1.1,9.7-3.1
		c0.6-0.5,1.3-1.1,1.9-1.8c3.8-3.6,8.5-8.1,8.3-14C99.4,76.6,96.9,72.7,92,68.7z M28.1,30.1l-1,1c-4.7,4.8-0.4,13.4,14.1,27.8
		c5.6,5.6,10.4,9.7,14.5,12.4c6,3.9,10.5,4.4,13.3,1.5l1.1-1.1c5.4-5.4,8.1-8.1,19.1,0.7c3.7,3,5.6,5.7,5.7,8.2
		c0.1,3.8-3.9,7.5-6.8,10.2c-0.8,0.6-1.4,1.3-2,1.9c-2.8,2.7-10.6,2.3-19.4-1c-11-4.1-23.4-12.5-34.7-23.8
		C20.8,57.1,12.4,44.8,8,33.4c-3.2-8.9-3.6-16.7-0.9-19.3c0.3-0.3,0.6-0.7,0.9-1c0.3-0.3,0.6-0.6,0.9-1c3.1-3.4,6.5-6.8,10-6.8
		l0.3,0c2.6,0.1,5.3,2,8.2,5.6C36.3,22,33.4,24.9,28.1,30.1z"/>
	<path d="M79.2,42.1c0.4,0.2,0.7,0.2,1,0.2c1,0,1.8-0.6,2.2-1.5c2.7-6.6,1.1-14.2-4-19.3c-5.2-5.2-13.2-6.7-20-3.7
		c-0.6,0.2-1.1,0.7-1.3,1.3c-0.2,0.6-0.2,1.3,0,1.8c0.2,0.6,0.7,1.1,1.3,1.3c0.6,0.2,1.3,0.2,1.9-0.1c4.9-2.2,10.8-1.2,14.6,2.6
		c3.7,3.7,4.8,9.3,2.9,14.1C77.5,40.2,78.1,41.7,79.2,42.1z"/>
	<path d="M52.1,7.9c0.6,0.2,1.3,0.2,1.9-0.1c10.8-4.9,23.8-2.5,32.3,5.9c8.2,8.2,10.7,20.4,6.3,31.2c-0.5,1.2,0.2,2.7,1.3,3.1
		c0.4,0.2,0.7,0.2,1,0.2c1,0,1.9-0.6,2.1-1.4c5.1-12.6,2.3-26.9-7.3-36.5c-9.9-9.9-25-12.6-37.6-6.9c-0.6,0.2-1.1,0.7-1.3,1.3
		c-0.2,0.6-0.2,1.3,0,1.8C51,7.2,51.5,7.6,52.1,7.9z"/>
</g>
</svg>
