<?xml version="1.0" encoding="utf-8"?>
<!-- Generator: Adobe Illustrator 21.0.0, SVG Export Plug-In . SVG Version: 6.00 Build 0)  -->
<svg version="1.1" id="Capa_1" width="32" height="32" xmlns="http://www.w3.org/2000/svg" xmlns:xlink="http://www.w3.org/1999/xlink" x="0px" y="0px"
	 viewBox="0 0 100 100" style="enable-background:new 0 0 100 100;" xml:space="preserve">
<path d="M99,26.5c-0.5-0.5-1.1-0.7-1.8-0.7H81.1c0,0,0,0-0.1,0s0,0-0.1,0H65.6c0,0,0,0-0.1,0s0,0-0.1,0H50.1c0,0,0,0-0.1,0
	s0,0-0.1,0H34.5c0,0,0,0-0.1,0s0,0-0.1,0H19c0,0,0,0-0.1,0s0,0-0.1,0H2.8c-1.4,0-2.5,1.1-2.5,2.5l0,43.4c0,0.7,0.3,1.3,0.7,1.8
	c0.5,0.5,1.1,0.7,1.8,0.7h94.5c1.4,0,2.5-1.1,2.5-2.5l0-43.4C99.7,27.6,99.5,27,99,26.5z M18.9,41.4c1.4,0,2.5-1.1,2.5-2.5v-8.1
	h10.5v14.9c0,1.4,1.1,2.5,2.5,2.5c1.4,0,2.5-1.1,2.5-2.5V30.8h10.5v8.1c0,1.4,1.1,2.5,2.5,2.5c1.4,0,2.5-1.1,2.5-2.5v-8.1H63v14.9
	c0,1.4,1.1,2.5,2.5,2.5c1.4,0,2.5-1.1,2.5-2.5V30.8h10.5v8.1c0,1.4,1.1,2.5,2.5,2.5s2.5-1.1,2.5-2.5v-8.1h11.1l0,38.4H5.3l0-38.4
	h11.1v8.1C16.4,40.3,17.5,41.4,18.9,41.4z"/>
</svg>
