<?xml version="1.0" encoding="utf-8"?>
<!-- Generator: Adobe Illustrator 21.0.0, SVG Export Plug-In . SVG Version: 6.00 Build 0)  -->
<svg version="1.1" id="Capa_1" width="32" height="32" xmlns="http://www.w3.org/2000/svg" xmlns:xlink="http://www.w3.org/1999/xlink" x="0px" y="0px"
	 viewBox="0 0 100 100" style="enable-background:new 0 0 100 100;" xml:space="preserve">
<g>
	<path d="M97,40.8c1.7,0,3-1.4,3-3V21.4c0-1.7-1.4-3-3-3H3c-1.7,0-3,1.4-3,3v16.3c0,1.7,1.4,3,3,3c5.1,0,9.2,4.1,9.2,9.2
		S8.1,59.2,3,59.2c-1.7,0-3,1.4-3,3v16.3c0,1.7,1.4,3,3,3h94c1.7,0,3-1.4,3-3V62.3c0-1.7-1.4-3-3-3c-5.1,0-9.2-4.1-9.2-9.2
		S91.9,40.8,97,40.8z M81.7,50c0,7.3,5.2,13.6,12.3,15v10.6H6V65c7-1.4,12.3-7.7,12.3-15S13.1,36.4,6,35V24.4H94V35
		C86.9,36.4,81.7,42.7,81.7,50z"/>
	<path d="M27.5,42.9c-1.7,0-3,1.4-3,3v8.2c0,1.7,1.4,3,3,3s3-1.4,3-3v-8.2C30.6,44.2,29.2,42.9,27.5,42.9z"/>
	<path d="M27.5,26.6c-1.7,0-3,1.4-3,3v8.2c0,1.7,1.4,3,3,3s3-1.4,3-3v-8.2C30.6,27.9,29.2,26.6,27.5,26.6z"/>
	<path d="M27.5,59.2c-1.7,0-3,1.4-3,3v8.2c0,1.7,1.4,3,3,3s3-1.4,3-3v-8.2C30.6,60.6,29.2,59.2,27.5,59.2z"/>
	<path d="M72.5,42.9c-1.7,0-3,1.4-3,3v8.2c0,1.7,1.4,3,3,3c1.7,0,3-1.4,3-3v-8.2C75.5,44.2,74.1,42.9,72.5,42.9z"/>
	<path d="M72.5,26.6c-1.7,0-3,1.4-3,3v8.2c0,1.7,1.4,3,3,3c1.7,0,3-1.4,3-3v-8.2C75.5,27.9,74.1,26.6,72.5,26.6z"/>
	<path d="M72.5,59.2c-1.7,0-3,1.4-3,3v8.2c0,1.7,1.4,3,3,3c1.7,0,3-1.4,3-3v-8.2C75.5,60.6,74.1,59.2,72.5,59.2z"/>
</g>
</svg>
