<?xml version="1.0" encoding="utf-8"?>
<!-- Generator: Adobe Illustrator 21.0.0, SVG Export Plug-In . SVG Version: 6.00 Build 0)  -->
<svg version="1.1" id="Layer_1" xmlns="http://www.w3.org/2000/svg" xmlns:xlink="http://www.w3.org/1999/xlink" x="0px" y="0px"
	 viewBox="0 0 100 100" style="enable-background:new 0 0 100 100;" xml:space="preserve">
<style type="text/css">
	.st0{fill:#1D1D1B;}
</style>
<g>
	<path class="st0" d="M24.8,86.1c0.6,0.8,1.5,1.3,2.5,1.3c0.2,0,0.4-0.1,0.6-0.1s0.3,0.1,0.5,0.1c0.9,0,1.8-0.4,2.4-1.1l68.1-68.1
		c1.2-1.2,1.2-3.2,0-4.5c-1.2-1.2-3.2-1.2-4.5,0L27.9,80.3L5.5,57.9c-1.2-1.2-3.2-1.2-4.5,0c-1.2,1.2-1.2,3.2,0,4.5
		C1.1,62.4,24.8,86.1,24.8,86.1z"/>
</g>
</svg>
