<?xml version="1.0" encoding="utf-8"?>
<!-- Generator: Adobe Illustrator 21.0.0, SVG Export Plug-In . SVG Version: 6.00 Build 0)  -->
<svg version="1.1" id="Layer_1" xmlns="http://www.w3.org/2000/svg" xmlns:xlink="http://www.w3.org/1999/xlink" x="0px" y="0px"
	 viewBox="0 0 100 100" style="enable-background:new 0 0 100 100;" xml:space="preserve">
<path d="M98,47.5H52.5V2c0-1.1-0.9-2-2-2h-1c-1.1,0-2,0.9-2,2v45.5H2c-1.1,0-2,0.9-2,2v1c0,1.1,0.9,2,2,2h45.5V98c0,1.1,0.9,2,2,2h1
	c1.1,0,2-0.9,2-2V52.5H98c1.1,0,2-0.9,2-2v-1C100,48.4,99.1,47.5,98,47.5z"/>
</svg>
