<?xml version="1.0" encoding="utf-8"?>
<!-- Generator: Adobe Illustrator 21.0.0, SVG Export Plug-In . SVG Version: 6.00 Build 0)  -->
<svg version="1.1" id="Capa_1" width="32" height="32" xmlns="http://www.w3.org/2000/svg" xmlns:xlink="http://www.w3.org/1999/xlink" x="0px" y="0px"
	 viewBox="0 0 100 100" style="enable-background:new 0 0 100 100;" xml:space="preserve">
<g>
	<path d="M93.7,28.1L93.7,28.1c-0.2-0.3-0.3-0.5-0.5-0.7L79.4,3.4c-1.2-2.1-3.5-2.3-5.5-2.3H26.1c-2.1,0-4.3,0.3-5.6,2.3L6.4,28
		c-0.1,0.1-0.1,0.3-0.2,0.4c0,0.1-0.1,0.2-0.2,0.4c-0.2,0.6-0.4,1.3-0.4,2v63.4c0,4.7,4.2,4.7,7.6,4.7h73.3c3.4,0,7.6,0,7.6-4.7
		V30.2C94.3,29.4,94.1,28.7,93.7,28.1z M11.6,28.2L25.2,5l22.5-0.2l0,23.2L11.6,28.2z M52.3,28.1l0.1-23.2l23.1,0l12.9,23.2H52.3z
		 M89.8,94.3H10.2c-0.2,0-0.2-0.1-0.2-0.2V32.4h80v61.7C90,94.3,89.9,94.3,89.8,94.3z"/>
	<path d="M69.5,49.2c-0.7-0.1-1.4,0.2-1.9,0.6L48.3,68.6L38.2,58.2c-0.5-0.5-1.1-0.7-1.8-0.7c-0.7,0-1.4,0.3-1.7,0.8
		c-0.5,0.6-0.7,1.3-0.6,2c0.1,0.6,0.3,1.1,0.7,1.3l11.8,12.2c0.5,0.5,1.1,0.7,1.7,0.7c0.6,0,1.2-0.2,1.7-0.7l21-20.5
		c0.5-0.5,0.7-1.1,0.7-1.8c0-0.6-0.3-1.2-0.7-1.5C70.7,49.5,70.1,49.2,69.5,49.2z"/>
</g>
</svg>
