<?xml version="1.0" encoding="utf-8"?>
<!-- Generator: Adobe Illustrator 21.0.0, SVG Export Plug-In . SVG Version: 6.00 Build 0)  -->
<svg version="1.1" id="Capa_1" width="32" height="32" xmlns="http://www.w3.org/2000/svg" xmlns:xlink="http://www.w3.org/1999/xlink" x="0px" y="0px"
	 viewBox="0 0 100 100" style="enable-background:new 0 0 100 100;" xml:space="preserve">
<path d="M97.7,30.2H84.2v-4.3c0-2.2-1.8-4-4-4H31.1c-2.2,0-4,1.8-4,4v9.6H14.4c0,0,0,0,0,0c-0.8,0-1.6,0.4-2,1.1L5.9,48H2.3
	C1,48,0,49,0,50.3v18.4C0,69.9,1,71,2.3,71h4.3c1.1,4.3,4.9,7.2,9.2,7.2c0.6,0,1.2-0.1,1.8-0.2c3.7-0.7,6.6-3.4,7.5-7l4.3,0
	c0.2,0,0.5-0.1,0.7-0.1c0.3,0.1,0.7,0.1,1,0.1h21c1.2,4.9,6,8,11,7c3.7-0.7,6.6-3.4,7.5-7h9.7c2.2,0,4-1.8,4-4V52.5h10
	c1.3,0,2.3-1,2.3-2.3s-1-2.3-2.3-2.3h-10v-4.3h1.2c1.3,0,2.3-1,2.3-2.3c0-1.3-1-2.3-2.3-2.3h-1.2v-4.3h13.5c1.3,0,2.3-1,2.3-2.3
	C100,31.2,99,30.2,97.7,30.2z M70.2,32.5c0,1.3,1,2.3,2.3,2.3h7.2v4.3H60.2c-1.3,0-2.3,1-2.3,2.3c0,1.3,1,2.3,2.3,2.3h19.4V48H68.9
	c-0.6,0-1.2,0.2-1.6,0.7c-0.4,0.4-0.7,1-0.7,1.6c0,1.3,1,2.3,2.3,2.3h10.6v13.8h-9c-0.6-2.3-1.9-4.2-3.9-5.6c-2.1-1.4-4.6-2-7.1-1.5
	c-3.7,0.7-6.6,3.4-7.5,7l-20.5-0.1l0.1-39.8l47.9,0.1v3.7h-7.2C71.2,30.2,70.2,31.2,70.2,32.5z M61.3,63.7c2.7,0,5,2.2,5,5
	c0,2.7-2.2,5-5,5c-2.7,0-5-2.2-5-5C56.4,65.9,58.6,63.7,61.3,63.7z M15.8,63.7c2.7,0,5,2.2,5,5c0,2.7-2.2,5-5,5s-5-2.2-5-5
	C10.9,65.9,13.1,63.7,15.8,63.7z M27,52.5v13.8h-2c-0.6-2.3-1.9-4.2-3.9-5.6c-2.1-1.4-4.6-2-7.1-1.5c-3.7,0.7-6.6,3.4-7.5,7h-2V52.5
	H27z M27,40.1V48H11.2l4.5-7.8H27z"/>
</svg>
