<?xml version="1.0" encoding="utf-8"?>
<!-- Generator: Adobe Illustrator 21.0.0, SVG Export Plug-In . SVG Version: 6.00 Build 0)  -->
<svg version="1.1" id="Capa_1" width="32" height="32" xmlns="http://www.w3.org/2000/svg" xmlns:xlink="http://www.w3.org/1999/xlink" x="0px" y="0px"
	 viewBox="0 0 100 100" style="enable-background:new 0 0 100 100;" xml:space="preserve">
<path d="M95.2,20.6H70.6c3.7-1.6,6.9-3.5,8.8-6l0.1-0.1c1.3-1.6,2-3.6,2-5.6c0-4.9-4-8.9-8.9-8.9c-0.6,0-1.1,0.1-1.6,0.2
	c-6.8,1.2-16.2,8.1-21,16C45.2,8.3,35.9,1.3,29.1,0.2C28.5,0.1,28,0,27.4,0c-4.9,0-8.9,4-8.9,8.9c0,2,0.7,4,2,5.7
	c1.9,2.5,5.2,4.5,8.9,6H4.8c-1.5,0-2.7,1.2-2.7,2.7v16.5c0,1.5,1.2,2.7,2.7,2.7h1.4v54.9c0,1.5,1.2,2.7,2.7,2.7h82.3
	c1.5,0,2.7-1.2,2.7-2.7V42.4h1.4c1.5,0,2.7-1.2,2.7-2.7V23.3C97.9,21.8,96.7,20.6,95.2,20.6z M27.4,5.4c0.2,0,0.5,0,0.7,0.1
	c5.9,1,14.2,7.7,17.8,14.3c-8.5-1.7-18.2-4.8-21.1-8.6c-0.1-0.1-0.1-0.1-0.1-0.2c-0.5-0.6-0.7-1.3-0.7-2.1C23.9,7,25.5,5.4,27.4,5.4
	z M54.1,19.8C57.7,13.2,66,6.5,71.9,5.5c0.2,0,0.5-0.1,0.7-0.1c1.9,0,3.5,1.6,3.5,3.5c0,0.8-0.2,1.5-0.7,2.1
	c-0.1,0.1-0.1,0.1-0.1,0.2C72.3,15,62.6,18.1,54.1,19.8z M92.5,37h-1.4H52.7V26h39.8V37z M11.6,42.4h35.7v52.2H11.6V42.4z M7.5,37
	V26h39.8V37H8.9H7.5z M52.7,42.4h35.7v52.2H52.7V42.4z"/>
</svg>
