<?xml version="1.0" encoding="utf-8"?>
<!-- Generator: Adobe Illustrator 21.0.0, SVG Export Plug-In . SVG Version: 6.00 Build 0)  -->
<svg version="1.1" id="Layer_1" xmlns="http://www.w3.org/2000/svg" xmlns:xlink="http://www.w3.org/1999/xlink" x="0px" y="0px"
	 viewBox="0 0 100 100" style="enable-background:new 0 0 100 100;" xml:space="preserve">
<g>
	<path d="M73.2,29.7H26.5c-2,0-4.2,1.6-4.2,4.2c0,2.6,2.2,4.2,4.2,4.2h46.7c2,0,4.2-1.6,4.2-4.2C77.5,31.5,75.7,29.7,73.2,29.7z"/>
	<path d="M73.5,45.8H26.5c-2,0-4.2,1.6-4.2,4.2c0,2.5,1.7,4.2,4.2,4.2h46.7c2,0,4.2-1.6,4.2-4.2C77.5,47.6,75.8,45.8,73.5,45.8z"/>
	<path d="M73.5,61.8H26.5c-2,0-4.2,1.6-4.2,4.2c0,2.5,1.7,4.2,4.2,4.2h46.7c2,0,4.2-1.6,4.2-4.2C77.5,63.6,75.8,61.8,73.5,61.8z"/>
	<path d="M50,0C22.4,0,0,22.4,0,50c0,27.6,22.4,50,50,50c27.6,0,50-22.4,50-50C100,22.4,77.6,0,50,0z M50,91.8
		C26.9,91.8,8.2,73.1,8.2,50S26.9,8.2,50,8.2S91.8,26.9,91.8,50S73.1,91.8,50,91.8z"/>
</g>
</svg>
