<?xml version="1.0" encoding="utf-8"?>
<!-- Generator: Adobe Illustrator 21.0.0, SVG Export Plug-In . SVG Version: 6.00 Build 0)  -->
<svg version="1.1" id="Layer_1" xmlns="http://www.w3.org/2000/svg" xmlns:xlink="http://www.w3.org/1999/xlink" x="0px" y="0px"
	 viewBox="0 0 100 100" style="enable-background:new 0 0 100 100;" xml:space="preserve">
<g>
	<g>
		<path d="M87.3,96.5L74.1,68.6c-0.3-0.6-0.7-1-1.3-1.2l-6.6-2.9l11.4-19c0,0,0.1-0.1,0.1-0.1c2.3-4.4,3.4-9.2,3.4-14.2
			c0-8.4-3.3-16.3-9.3-22.1c-6-5.9-13.9-9.1-22.3-9c-8.2,0.1-15.8,3.4-21.6,9.2c-5.8,5.8-9,13.5-9,21.7c0,5,1.1,9.9,3.4,14.4
			c0,0,0,0.1,0.1,0.1l11.4,19l-6.6,2.9c-0.5,0.2-1,0.7-1.2,1.2L12.7,96.5c-0.4,0.9-0.3,2,0.5,2.8c0.7,0.7,1.8,0.9,2.8,0.5l16.5-7.4
			L49,99.8c0.6,0.3,1.4,0.3,2,0l16.5-7.4L84,99.8c0.3,0.1,0.7,0.2,1,0.2c0.7,0,1.3-0.3,1.8-0.7C87.5,98.5,87.7,97.4,87.3,96.5z
			 M26.7,43c-1.9-3.7-2.9-7.8-2.8-12c0.1-14.1,11.7-25.8,25.8-26c7.1-0.1,13.7,2.6,18.7,7.5c5,5,7.8,11.6,7.8,18.6
			c0,4.2-1,8.2-2.8,11.8L52.1,78.5c-0.6,1.1-1.7,1.2-2.1,1.2c-0.4,0-1.5-0.1-2.1-1.2L26.7,43z M68.5,87.5c-0.6-0.3-1.4-0.3-2,0
			L50,94.8l-16.5-7.4c-0.6-0.3-1.4-0.3-2,0L20,92.6l9.9-21l6.3-2.8l7.4,12.3c1.3,2.3,3.7,3.6,6.4,3.6s5-1.3,6.4-3.6l7.4-12.3
			l6.3,2.8l9.9,21L68.5,87.5z"/>
	</g>
</g>
<g>
	<g>
		<path d="M50,19.8c-6.2,0-11.3,5.1-11.3,11.3S43.8,42.4,50,42.4c6.2,0,11.3-5.1,11.3-11.3S56.2,19.8,50,19.8z M50,37.4
			c-3.5,0-6.3-2.8-6.3-6.3c0-3.5,2.8-6.3,6.3-6.3c3.5,0,6.3,2.8,6.3,6.3S53.5,37.4,50,37.4z"/>
	</g>
</g>
</svg>
