<?xml version="1.0" encoding="utf-8"?>
<!-- Generator: Adobe Illustrator 21.0.0, SVG Export Plug-In . SVG Version: 6.00 Build 0)  -->
<svg version="1.1" id="Layer_1" xmlns="http://www.w3.org/2000/svg" xmlns:xlink="http://www.w3.org/1999/xlink" x="0px" y="0px"
	 viewBox="0 0 100 100" style="enable-background:new 0 0 100 100;" xml:space="preserve">
<style type="text/css">
	.st0{fill:#222222;}
</style>
<g>
	<path class="st0" d="M26,37h47.7c1.7,0,3.3-1.3,3.3-3.3s-1.3-3.3-3.3-3.3H26c-1.7,0-3.3,1.3-3.3,3.3S24.3,37,26,37z"/>
	<path class="st0" d="M74,46.7H26c-1.7,0-3.3,1.3-3.3,3.3s1.3,3.3,3.3,3.3h47.7c1.7,0,3.3-1.3,3.3-3.3S75.7,46.7,74,46.7z"/>
	<path class="st0" d="M74,63H26c-1.7,0-3.3,1.3-3.3,3.3c0,2,1.3,3.3,3.3,3.3h47.7c1.7,0,3.3-1.3,3.3-3.3C77,64.3,75.7,63,74,63z"/>
</g>
<path class="st0" d="M50,0C22.3,0,0,22.3,0,50s22.3,50,50,50s50-22.3,50-50S77.7,0,50,0z M50,93.7C26,93.7,6.3,74,6.3,50
	S26,6.3,50,6.3S93.7,26,93.7,50S74,93.7,50,93.7z"/>
</svg>
