<?xml version="1.0" encoding="utf-8"?>
<!-- Generator: Adobe Illustrator 21.0.0, SVG Export Plug-In . SVG Version: 6.00 Build 0)  -->
<svg version="1.1" id="Layer_1" xmlns="http://www.w3.org/2000/svg" xmlns:xlink="http://www.w3.org/1999/xlink" x="0px" y="0px"
	 viewBox="0 0 100 100" style="enable-background:new 0 0 100 100;" xml:space="preserve">
<g>
	<path d="M87.5,94.8L74.6,67.6c-0.4-0.8-1-1.4-1.8-1.8l-5.1-2.3L78,46.1c0-0.1,0.1-0.1,0.1-0.2c2.3-4.5,3.5-9.3,3.5-14.4
		c0-8.5-3.3-16.5-9.4-22.5c-6.1-6-14.1-9.2-22.6-9.1c-8.3,0.1-16.1,3.4-21.9,9.4s-9.1,13.7-9.2,22c0,5.1,1.2,10.1,3.5,14.6
		c0,0.1,0.1,0.1,0.1,0.2l10.4,17.4l-5.2,2.3c-0.8,0.4-1.4,1-1.8,1.8L12.5,94.8c-0.6,1.4-0.4,3,0.7,4.1c1.1,1.1,2.7,1.4,4.1,0.8
		l15.6-7l15.6,7c0.9,0.4,2,0.4,3,0l15.6-7l15.6,7c0.5,0.2,1,0.3,1.5,0.3c1,0,1.9-0.4,2.6-1.1C87.8,97.8,88.1,96.2,87.5,94.8z
		 M67.1,14.3c4.7,4.6,7.2,10.8,7.2,17.3c0,3.9-0.9,7.6-2.6,10.9L51,77.2c-0.3,0.5-0.7,0.6-1,0.6c-0.3,0-0.7-0.1-1-0.6L28.3,42.5
		c-1.8-3.5-2.6-7.2-2.6-11.1c0.1-13.1,10.8-24,24-24.2C56.2,7.2,62.4,9.7,67.1,14.3z M36.1,69.8l6.6,11.1C44.3,83.5,47,85,50,85
		s5.7-1.5,7.2-4.1l6.6-11.1l4.7,2.1l8.1,17.1l-8.2-3.6l0,0c-0.9-0.4-2-0.4-3,0l-15.6,7l-15.6-7c-0.5-0.2-1-0.3-1.5-0.3
		c-0.5,0-1,0.1-1.5,0.3l-8.2,3.6l8.1-17.2L36.1,69.8z"/>
	<path d="M50,43.8c6.7,0,12.2-5.5,12.2-12.2S56.7,19.4,50,19.4c-6.7,0-12.2,5.5-12.2,12.2S43.3,43.8,50,43.8z M45,31.6
		c0-2.7,2.2-5,5-5c2.7,0,5,2.2,5,5s-2.2,5-5,5C47.3,36.5,45,34.3,45,31.6z"/>
</g>
</svg>
