<?xml version="1.0" encoding="utf-8"?>
<!-- Generator: Adobe Illustrator 21.0.0, SVG Export Plug-In . SVG Version: 6.00 Build 0)  -->
<svg version="1.1" id="Capa_1" width="32" height="32" xmlns="http://www.w3.org/2000/svg" xmlns:xlink="http://www.w3.org/1999/xlink" x="0px" y="0px"
	 viewBox="0 0 100 100" style="enable-background:new 0 0 100 100;" xml:space="preserve">
<style type="text/css">
	.st0{fill:#222222;}
</style>
<g>
	<path class="st0" d="M50,0C22.4298439,0,0,22.4298439,0,50s22.4298439,50,50,50s50-22.4298401,50-50S77.5701599,0,50,0z
		 M50,93.8306503C25.8317795,93.8306503,6.1698346,74.1682205,6.1698346,50S25.8317795,6.1698346,50,6.1698346
		S93.8306503,25.8317795,93.8306503,50S74.1682205,93.8306503,50,93.8306503z"/>
	<path class="st0" d="M50,9.7063513c-1.7009697,0-3.0846748,1.3837061-3.0846748,3.0846739v35.7421875H24.1157494
		c-1.7009678,0-3.0846748,1.3841896-3.0846748,3.0856438c0,1.7004814,1.383707,3.0832176,3.0846748,3.0832176H50
		c1.7004814,0,3.0841866-1.3827362,3.0841866-3.0832176V12.7910252C53.0841866,11.0900574,51.7004814,9.7063513,50,9.7063513z"/>
</g>
</svg>
