<?xml version="1.0" encoding="utf-8"?>
<!-- Generator: Adobe Illustrator 21.0.0, SVG Export Plug-In . SVG Version: 6.00 Build 0)  -->
<svg version="1.1" id="Layer_1" xmlns="http://www.w3.org/2000/svg" xmlns:xlink="http://www.w3.org/1999/xlink" x="0px" y="0px"
	 viewBox="0 0 100 100" style="enable-background:new 0 0 100 100;" xml:space="preserve">
<style type="text/css">
	.st0{fill:#222222;}
</style>
<path class="st0" d="M95.8257217,67.4614639L52.5595856,44.6052551v-2.2153015
	c7.1156731-1.8620033,11.5199661-6.3866577,11.5199661-11.8654633c0-6.5957146-5.3662415-11.9619522-11.9614677-11.9619522
	c-6.1741943,0-11.4132423,4.5977516-11.9210167,10.4254684c-0.0199814,0.1154919-0.0316734,0.234396-0.0345993,0.3869228
	c0,1.41222,1.149559,2.5612907,2.5622673,2.5612907c1.2421455,0,2.2810898-0.8878746,2.5140228-2.0622864l0.0589638-0.4527092
	c0.1549644-1.6709805,0.9872856-2.8600121,1.6587944-3.5636845c1.3137856-1.3800564,3.1947937-2.1714439,5.1615677-2.1714439
	c3.7698174,0,6.8369331,3.0676041,6.8369331,6.8383942c0,1.4058838-0.5954895,2.7016335-1.7689285,3.850708
	c-1.4268379,1.3961372-3.5631981,2.4760132-6.206356,3.1309547c-1.4341469,0.4424744-3.1543465,0.9736404-3.2079468,0.9931335
	l-0.3313713,0.1179276l-0.0029221,5.9880409L4.1801286,67.460495C1.6017816,68.7879181,0,71.2780609,0,73.9592285
	c0,4.1236038,3.7137747,7.4782333,8.2788763,7.4782333h83.4456558c4.5631561,0,8.2754669-3.3546295,8.2754669-7.4782333
	C100,71.2780609,98.4006577,68.7888947,95.8257217,67.4614639z M94.8783951,73.9592285
	c0,1.2533569-1.4736252,2.3527298-3.153862,2.3527298H8.2788763c-1.6802378,0-3.1538572-1.0993729-3.1538572-2.3527298
	c0-0.7640991,0.5253177-1.4940796,1.3469191-1.9248657L49.9973183,49.046093l43.4766502,22.961956
	C94.3530731,72.4651489,94.8783951,73.1941605,94.8783951,73.9592285z"/>
</svg>
