<?xml version="1.0" encoding="utf-8"?>
<!-- Generator: Adobe Illustrator 21.0.0, SVG Export Plug-In . SVG Version: 6.00 Build 0)  -->
<svg version="1.1" id="Layer_1" xmlns="http://www.w3.org/2000/svg" width="430" height="80" xmlns:xlink="http://www.w3.org/1999/xlink" x="0px" y="0px"
	 viewBox="0 0 430 70" style="enable-background:new 0 0 430 70;" xml:space="preserve">
<style type="text/css">
	.st0{fill:#222222;}
</style>
<g>
	<g>
		<path class="st0" d="M67.8000031,21.5c-7.5,0-13.5,6.1000004-13.5,13.5s6.0999985,13.5,13.5,13.5c7.5,0,13.5-6.0999985,13.5-13.5
			S75.3000031,21.5,67.8000031,21.5z M73,28.3999996h-1.9000015c-1.5,0-1.8000031,0.7000008-1.8000031,1.7000008v2.1999989h3.5v3.5
			h-3.5v9.1000023h-3.5999985v-9.0999985h-3.0999985v-3.5h3.0999985v-2.6000004c0-3,1.8000031-4.6999989,4.5-4.6999989H73
			V28.3999996L73,28.3999996z"/>
	</g>
	<g>
		<g>
			<ellipse class="st0" cx="126.6999969" cy="34.9000015" rx="4" ry="3.9000006"/>
			<path class="st0" d="M132.8999939,35.2000008c0,3.2999992-2.8000031,6-6.1999969,6S120.5,38.5,120.5,35.2000008
				C120.5,34.6000023,120.5999985,34,120.6999969,33.5h-1.8000031v8.4000015c0,0.4000015,0.4000015,0.7999992,0.8000031,0.7999992
				h13.8999939c0.3999939,0,0.8000031-0.4000015,0.8000031-0.7999992V33.5h-1.6999969
				C132.8000031,34,132.8999939,34.5999985,132.8999939,35.2000008z"/>
			<path class="st0" d="M131.1999969,31.2000008h2.1999969c0.5,0,0.8999939-0.3999996,0.8999939-0.8999996v-2.1000004
				c0-0.5-0.3999939-0.8999996-0.8999939-0.8999996h-2.1999969c-0.5,0-0.8999939,0.3999996-0.8999939,0.8999996v2.1000004
				C130.3999939,30.7999992,130.8000031,31.2000008,131.1999969,31.2000008z"/>
			<path class="st0" d="M126.6999969,21.5c-7.5,0-13.5,6.1000004-13.5,13.5s6.0999985,13.5,13.5,13.5
				c7.4000092,0,13.5-6.0999985,13.5-13.5S134.1999969,21.5,126.6999969,21.5z M134.1000061,44.9000015h-14.8000031
				c-1.4000015,0-2.5999985-1.0999985-2.5999985-2.5999985V27.6000004c0-1.5,1.1999969-2.6000004,2.5999985-2.6000004h14.8000031
				c1.3999939,0,2.6000061,1.1000004,2.6000061,2.6000004v14.8000011
				C136.6000061,43.9000015,135.5,44.9000015,134.1000061,44.9000015z"/>
		</g>
	</g>
	<g>
		<path class="st0" d="M185.6000061,21.5c-7.5,0-13.5,6.1000004-13.5,13.5s6.1000061,13.5,13.5,13.5c7.5,0,13.5-6.0999985,13.5-13.5
			S193,21.5,185.6000061,21.5z M187.1999969,39.5c-1.1999969,0-2.3999939-0.7000008-2.8000031-1.4000015
			c0,0-0.6999969,2.7000008-0.8000031,3.2000008c-0.5,1.7999992-2,3.5999985-2.1000061,3.7999992
			c-0.1000061,0.0999985-0.1999969,0.0999985-0.3000031-0.0999985c0-0.2000008-0.3999939-2.5,0-4.4000015
			c0.1999969-0.9000015,1.5-6.2999992,1.5-6.2999992S182.2999878,33.5999985,182.2999878,32.5c0-1.7000008,1-3,2.1999969-3
			c1.1000061,0,1.6000061,0.7999992,1.6000061,1.7000008c0,1.0999985-0.6999969,2.5999985-1,4.0999985
			C184.7999878,36.5,185.6999969,37.5,186.8999939,37.5c2.1999969,0,3.6999969-2.7999992,3.6999969-6.2000008
			c0-2.5-1.6999969-4.3999996-4.8000031-4.3999996c-3.5,0-5.6999969,2.6000004-5.6999969,5.5000019
			c0,1,0.3000031,1.7000008,0.8000031,2.2999992c0.1999969,0.2000008,0.1999969,0.4000015,0.1999969,0.5999985
			C180.9999847,35.5,180.8999939,36,180.8999939,36.2000008C180.7999878,36.5,180.5999908,36.6000023,180.2999878,36.5
			c-1.6000061-0.5999985-2.3999939-2.4000015-2.3999939-4.4000015c0-3.2999992,2.8000031-7.2000008,8.3000031-7.2000008
			c4.3999939,0,7.3000031,3.2000008,7.3000031,6.6000004C193.3999939,36.0999985,190.8999939,39.5,187.1999969,39.5z"/>
	</g>
	<g>
		<g>
			<polygon class="st0" points="238.1000061,36 239.1000061,36 239.1000061,41.7999992 240.1000061,41.7999992 240.1000061,36 
				241.1999969,36 241.1999969,35.0999985 238.1000061,35.0999985 			"/>
			<path class="st0" d="M246.6000061,36.7000008c-0.3000031,0-0.6000061,0.2000008-0.8999939,0.5V35h-0.8999939v6.7999992h0.8999939
				v-0.5c0.3000031,0.4000015,0.6000061,0.5999985,0.8999939,0.5999985c0.3999939,0,0.6000061-0.2000008,0.6999969-0.5999985
				c0.1000061-0.2000008,0.1000061-0.5,0.1000061-1v-2c0-0.5,0-0.7999992-0.1000061-1
				C247.1999969,36.9000015,247,36.7000008,246.6000061,36.7000008z M246.5,40.4000015
				c0,0.5-0.1000061,0.7000008-0.3999939,0.7000008c-0.1999969,0-0.3000031-0.0999985-0.5-0.2000008v-3.0999985
				c0.1999969-0.2000008,0.3000031-0.2000008,0.5-0.2000008c0.3000031,0,0.3999939,0.2000008,0.3999939,0.7000008V40.4000015z"/>
			<path class="st0" d="M243.1000061,40.5999985C242.9000092,40.8999977,242.7000122,41,242.5,41
				c-0.1000061,0-0.1999969-0.0999985-0.1999969-0.2000008c0,0,0-0.0999985,0-0.4000015v-3.7000008h-0.8999939v4
				c0,0.4000015,0,0.5999985,0.1000061,0.7999992s0.3000031,0.4000015,0.6000061,0.4000015s0.6999969-0.2000008,1.1000061-0.5999985
				v0.5h0.8999939v-5h-0.8999939L243.1000061,40.5999985L243.1000061,40.5999985z"/>
			<path class="st0" d="M243.8000031,32.0999985c0.3000031,0,0.3999939-0.2000008,0.3999939-0.7000008v-2.1000004
				c0-0.5-0.1000061-0.7000008-0.3999939-0.7000008c-0.3000031,0-0.3999939,0.2000008-0.3999939,0.7000008v2.1000004
				C243.3999939,31.8999996,243.5,32.0999985,243.8000031,32.0999985z"/>
			<path class="st0" d="M244.5,21.5c-7.5,0-13.5,6-13.5,13.5s6.1000061,13.5,13.5,13.5S258,42.5,258,35S251.8999939,21.5,244.5,21.5
				z M246,27.7999992h0.8999939V31.5c0,0.2000008,0,0.2999992,0,0.3999996S247,32.0999985,247.0999908,32.0999985
				c0.1999969,0,0.3999939-0.1000004,0.6000061-0.3999996v-3.8999996h0.8999939v5.0999985h-0.8999939v-0.5999985
				c-0.3999939,0.4000015-0.6999969,0.5999985-1.1000061,0.5999985c-0.3000031,0-0.5-0.0999985-0.6000061-0.4000015
				c-0.1000061-0.2000008-0.1000061-0.4000015-0.1000061-0.7999992v-3.8999977H246z M242.5,29.5
				c0-0.5,0.1000061-0.8999996,0.3000031-1.2000008c0.1999969-0.3999996,0.6000061-0.5,1.1000061-0.5
				s0.8000031,0.2000008,1.1000061,0.5C245.2000122,28.5,245.3000183,28.8999996,245.3000183,29.5v1.7999992
				c0,0.5-0.1000061,0.9000015-0.3000031,1.2000008c-0.1999969,0.4000015-0.6000061,0.5-1.1000061,0.5
				s-0.8000031-0.2000008-1.1000061-0.5C242.6000061,32.2999992,242.5,31.8999996,242.5,31.2999992V29.5z M240,26.1000004
				l0.6999969,2.7000008l0.6999969-2.7000008h1l-1.1999969,4.1000004V33h-1v-2.7999992
				C240.0999908,29.7000008,239.8999939,29,239.5999908,28c-0.1999969-0.6000004-0.3999939-1.2999992-0.6000061-1.8999996
				C239,26.1000004,240,26.1000004,240,26.1000004z M251.6999969,42.2000008
				c-0.1999969,0.7999992-0.8000031,1.4000015-1.6000061,1.5c-1.8999939,0.2000008-3.8000031,0.2000008-5.6000061,0.2000008
				s-3.8000031,0-5.6000061-0.2000008c-0.8000031-0.0999985-1.3999939-0.7000008-1.6000061-1.5
				c-0.3000031-1.0999985-0.3000031-2.4000015-0.3000031-3.5999985c0-1.2000008,0-2.4000015,0.3000031-3.5999985
				c0.1999969-0.7999992,0.8000031-1.4000015,1.6000061-1.5c1.8999939-0.2000008,3.8000031-0.2000008,5.6000061-0.2000008
				s3.8000031,0,5.6000061,0.2000008c0.8000031,0.0999985,1.3999939,0.7000008,1.6000061,1.5
				C252,36.1000023,252,37.4000053,252,38.6000023C252,39.9000015,252,41.0999985,251.6999969,42.2000008z"/>
			<path class="st0" d="M249.5,36.7000008c-0.5,0-0.8000031,0.2000008-1.1000061,0.5
				c-0.1999969,0.2000008-0.3000031,0.5999985-0.3000031,1.2000008v1.7999992c0,0.5,0.1000061,0.9000015,0.3000031,1.2000008
				c0.3000031,0.4000015,0.6000061,0.5,1.1000061,0.5s0.8000031-0.2000008,1.1000061-0.5
				c0.1000061-0.2000008,0.1999969-0.4000015,0.1999969-0.5s0-0.2999992,0-0.5999985v-0.0999985H250
				c0,0.4000015,0,0.5999985,0,0.5999985c-0.1000061,0.2000008-0.1999969,0.4000015-0.3999939,0.4000015
				c-0.3000031,0-0.5-0.2000008-0.5-0.7000008v-0.9000015h1.8000031v-1.0999985c0-0.5-0.1000061-0.9000015-0.3000031-1.2000008
				C250.3000031,36.9000015,250,36.7000008,249.5,36.7000008z M250,38.7000008h-0.8999939v-0.5
				c0-0.5,0.1999969-0.7000008,0.5-0.7000008s0.5,0.2000008,0.5,0.7000008C250,38.2000008,250,38.7000008,250,38.7000008z"/>
		</g>
	</g>
	<g>
		<g>
			<path class="st0" d="M303.8999939,30.7999992c0-1.8999996-1.1000061-4.7999992-3.2999878-4.7999992
				c-0.7000122,0-1.3999939,0.3999996-1.7999878,0.8999996s-0.6000061,1.2000008-0.6000061,1.8999996
				c0,1.7000008,1,4.5999985,3.2000122,4.5999985c0.6000061,0,1.3999939-0.2999992,1.7999878-0.7000008
				C303.7999878,32.0999985,303.8999939,31.2999992,303.8999939,30.7999992z"/>
			<path class="st0" d="M302.5,37.5999985c-0.2000122,0-0.2999878,0-0.6000061,0
				c-0.2000122,0-1.6000061,0.0999985-2.7000122,0.4000015c-0.6000061,0.2000008-2.2000122,0.7999992-2.2000122,2.7000008
				c0,1.7999992,1.7999878,3.2000008,4.6000061,3.2000008c2.5,0,3.7999878-1.2000008,3.7999878-2.7999992
				C305.2999878,39.7000008,304.3999939,39.0999985,302.5,37.5999985z"/>
			<path class="st0" d="M303.3999939,21.5c-7.5,0-13.5,6.1000004-13.5,13.5s6.1000061,13.5,13.5,13.5s13.5-6.0999985,13.5-13.5
				S310.7999878,21.5,303.3999939,21.5z M300.2000122,45c-3.7999878,0-5.6000061-1.7999992-5.6000061-3.7000008
				c0-0.9000015,0.5-2.2999992,2-3.2000008c1.6000061-1,3.7999878-1.0999985,4.8999939-1.2000008
				c-0.3999939-0.5-0.7999878-1-0.7999878-1.7999992c0-0.4000015,0.1000061-0.7000008,0.2999878-1
				c-0.2999878,0-0.6000061,0.0999985-0.7999878,0.0999985c-2.7999878,0-4.2999878-2.0999985-4.2999878-4.1000004
				c0-1.2000008,0.5-2.5,1.6000061-3.5c1.5-1.2000008,3.5-1.6000004,4.8999939-1.6000004h5.1000061l-1.7000122,1.1000004h-1.6000061
				c0.6000061,0.5,1.7999878,1.5,1.7999878,3.5c0,1.8999996-1.1000061,2.8000011-2.2000122,3.6999989
				c-0.3999939,0.2999992-0.7000122,0.7000008-0.7000122,1.2999992s0.3999939,0.9000015,0.7000122,1.0999985l0.8999939,0.7000008
				c1.1000061,1,2.2000122,1.7999992,2.2000122,3.5999985C307,42.5,304.7000122,45,300.2000122,45z M311.3999939,34.7000008
				v2.5999985h-1.2999878v-2.5999985H307.5v-1.2999992h2.6000061v-2.6000004h1.2999878v2.6000004H314v1.2999992H311.3999939z"/>
		</g>
	</g>
	<g>
		<path class="st0" d="M361.5,21.6000004c-7.3999939,0-13.5,6-13.5,13.4999981s6,13.5,13.5,13.5s13.5-6,13.5-13.5
			S368.8999939,21.6000004,361.5,21.6000004z M369.6000061,31.5c0,0.2000008,0,0.2999992,0,0.5
			c0,5.7999992-4.3999939,11.7000008-11.7000122,11.7000008c-2.2000122,0-4.3999939-0.5999985-6.2999878-1.9000015
			c0,0-0.1000061-0.0999985,0-0.0999985c0-0.0999985,0.1000061-0.0999985,0.1000061-0.0999985
			c0.2999878,0,0.6000061,0.0999985,1,0.0999985c1.7000122,0,3.3999939-0.5,4.7999878-1.5999985
			c-1.7000122-0.2000008-3.1000061-1.2999992-3.6000061-2.9000015v-0.0999985H354c0.5,0.0999985,0.8999939,0.0999985,1.3999939,0
			c-1.7000122-0.5-2.8999939-2.2000008-2.8999939-4v-0.0999985c0,0,0-0.0999985,0.1000061-0.0999985h0.1000061
			c0.5,0.2000008,0.8999939,0.4000015,1.5,0.5c-1-0.7999992-1.6000061-2-1.6000061-3.2999992
			c0-0.7000008,0.2000122-1.5,0.6000061-2.1000004l0.1000061-0.1000004h0.1000061c2,2.5,5,4,8.2000122,4.2000008
			c-0.1000061-0.2999992-0.1000061-0.5-0.1000061-0.7999992c0-2.2999992,1.8999939-4.2000008,4.2000122-4.2000008
			c1.1000061,0,2.2000122,0.5,3,1.2999992c0.8999939-0.2000008,1.7000122-0.5,2.5-1h0.1000061c0,0,0.1000061,0.1000004,0,0.1000004
			c-0.2999878,0.7999992-0.7999878,1.5-1.5,2.1000004c0.6000061-0.1000004,1.2999878-0.2999992,1.8999939-0.6000004h0.1000061
			v0.1000004C371.1000061,30.2000008,370.3999939,30.8999996,369.6000061,31.5z"/>
	</g>
</g>
</svg>
